<?xml version="1.0" encoding="UTF-8" standalone="no"?>
<!-- Created with Inkscape (http://www.inkscape.org/) -->

<svg
   width="130mm"
   height="195mm"
   viewBox="0 0 130 195"
   version="1.1"
   id="svg5"
   xml:space="preserve"
   inkscape:export-filename="couverture.pdf"
   inkscape:export-xdpi="300"
   inkscape:export-ydpi="300"
   inkscape:version="1.2.2 (b0a8486541, 2022-12-01)"
   sodipodi:docname="couverture.svg"
   xmlns:inkscape="http://www.inkscape.org/namespaces/inkscape"
   xmlns:sodipodi="http://sodipodi.sourceforge.net/DTD/sodipodi-0.dtd"
   xmlns:xlink="http://www.w3.org/1999/xlink"
   xmlns="http://www.w3.org/2000/svg"
   xmlns:svg="http://www.w3.org/2000/svg"><sodipodi:namedview
     id="namedview7"
     pagecolor="#505050"
     bordercolor="#ffffff"
     borderopacity="1"
     inkscape:showpageshadow="0"
     inkscape:pageopacity="0"
     inkscape:pagecheckerboard="1"
     inkscape:deskcolor="#505050"
     inkscape:document-units="mm"
     showgrid="false"
     inkscape:zoom="1.0973349"
     inkscape:cx="113.4567"
     inkscape:cy="279.31309"
     inkscape:window-width="1584"
     inkscape:window-height="978"
     inkscape:window-x="6"
     inkscape:window-y="65"
     inkscape:window-maximized="0"
     inkscape:current-layer="text719" /><defs
     id="defs2"><rect
       x="110.32901"
       y="110.24051"
       width="569.29419"
       height="209.59334"
       id="rect721" /></defs><g
     inkscape:label="Calque 1"
     inkscape:groupmode="layer"
     id="layer1"
     sodipodi:insensitive="true"><image
       width="156.95375"
       height="209.27167"
       preserveAspectRatio="none"
       style="image-rendering:optimizeQuality"
       xlink:href="../../Nextcloud/01Travail/E112-New_Pedagogical_online_offline_Realities/sources/20220307_102027.jpg"
       id="image147"
       x="-6.4029913"
       y="-5.1474905" /></g><g
     inkscape:groupmode="layer"
     id="layer3"
     inkscape:label="Calque 3" /><g
     inkscape:groupmode="layer"
     id="layer2"
     inkscape:label="Calque 2"><g
       id="g924"
       transform="translate(-17.866827,-16.037948)"><path
         id="rect882"
         style="stroke-width:4.34667;stroke-linecap:square;stroke-linejoin:bevel;paint-order:markers fill stroke"
         d="m 31.457299,26.665169 h 56.0633 c 2.03683,0 3.676588,1.639758 3.676588,3.676588 v 19.81023 c 0,2.03683 -1.639758,3.676588 -3.676588,3.676588 h -56.0633 c -2.03683,0 -3.676589,-1.639758 -3.676589,-3.676588 v -19.81023 c 0,-2.03683 1.639759,-3.676588 3.676589,-3.676588 z" /><path
         id="rect882-7"
         style="stroke-width:4.34667;stroke-linecap:square;stroke-linejoin:bevel;paint-order:markers fill stroke"
         d="m 52.473786,37.699905 h 82.619604 c 1.6605,0 2.9973,1.292757 2.9973,2.898557 v 10.259111 c 0,1.605801 -1.3368,2.898557 -2.9973,2.898557 H 52.473786 c -1.660502,0 -2.997296,-1.292756 -2.997296,-2.898557 V 40.598462 c 0,-1.6058 1.336794,-2.898557 2.997296,-2.898557 z" /><g
         aria-label="Digital Tools 
for Collective Practices"
         transform="matrix(0.23001174,0,0,0.23001174,5.8442702,5.3397276)"
         id="text719"
         style="font-size:40px;line-height:41.6px;font-family:'Ready Clouded';-inkscape-font-specification:'Ready Clouded';white-space:pre;shape-inside:url(#rect721);display:inline"><path
           d="m 113.76812,143.52023 h 10.36 c 8.76,0 14.88,-5.08 14.88,-15.68 0,-10.6 -6.36,-14.92 -15.11999,-14.92 h -10.12001 z m 5.60001,-4.32 v -22 h 4.52 c 5.43999,0 9.23999,2.88 9.23999,10.76 0,8.32 -3.76,11.24 -9.48,11.24 z"
           style="font-weight:500;font-family:'Atlas Grotesk';-inkscape-font-specification:'Atlas Grotesk Medium';fill:#ffffff"
           id="path245" /><path
           d="m 144.2481,118.12023 h 5.48 v -5.08 h -5.48 z m 0.04,25.4 h 5.4 v -21.32 h -5.4 z"
           style="font-weight:500;font-family:'Atlas Grotesk';-inkscape-font-specification:'Atlas Grotesk Medium';fill:#ffffff"
           id="path247" /><path
           d="m 169.88814,133.84023 c 0,3.12 -2.04,5.56 -4.96,5.56 -3.56,0 -4.96,-2.64 -4.96,-6.92 0,-4.44 1.84,-6.96 4.92,-6.96 3,0 5,2.32 5,6.04 z m -5.2,17.64 c 6.72,0 10.36,-2.96 10.36,-9.24 v -20.04 h -5.16 v 3.08 h -0.08 c -0.88,-1.8 -2.84,-3.56 -6.2,-3.56 -5.2,0 -9.12,3.8 -9.12,10.76 0,7.44 3.68,10.52 8.88,10.52 3.44,0 5.52,-2 6.4,-3.8 h 0.08 v 3.04 c 0,4.12 -1.64,5.52 -5.08,5.52 -3,0 -4.08,-1 -4.48,-2.68 h -5.2 c 0.4,4.16 3.88,6.4 9.6,6.4 z"
           style="font-weight:500;font-family:'Atlas Grotesk';-inkscape-font-specification:'Atlas Grotesk Medium';fill:#ffffff"
           id="path249" /><path
           d="m 181.16811,118.12023 h 5.48 v -5.08 h -5.48 z m 0.04,25.4 h 5.4 v -21.32 h -5.4 z"
           style="font-weight:500;font-family:'Atlas Grotesk';-inkscape-font-specification:'Atlas Grotesk Medium';fill:#ffffff"
           id="path251" /><path
           d="m 194.52815,116.16023 v 1.56 c 0,3.96 -0.52,4.56 -3.28,4.56 h -0.72 v 3.76 h 3.44 v 11.48 c 0,4.44 2.24,6.32 6.44,6.32 1.8,0 3.36,-0.2 3.88,-0.28 v -4.04 c 0,0 -1.08,0.16 -2,0.16 -2.16,0 -3,-0.92 -3,-3.12 v -10.52 h 4.88 v -3.84 h -4.96 v -6.04 z"
           style="font-weight:500;font-family:'Atlas Grotesk';-inkscape-font-specification:'Atlas Grotesk Medium';fill:#ffffff"
           id="path253" /><path
           d="m 216.0881,140.20023 c -1.96,0 -3.12,-1.12 -3.12,-2.88 0,-1 0.32,-1.8 1.08,-2.32 1.12,-0.8 3.12,-1.12 6.88,-1.32 v 0.6 c 0,4.16 -2.48,5.92 -4.84,5.92 z m -2.36,-11.84 c 0.08,-1.68 1.12,-3.08 3.6,-3.08 2.44,0 3.56,1.32 3.56,4.2 v 1.08 c -4.6,0.2 -7.84,0.48 -10.08,1.64 -2.16,1.12 -3.2,2.92 -3.2,5.36 0,3.92 2.68,6.24 7.04,6.24 3.08,0 5.32,-1.24 6.56,-3.44 h 0.12 c 0.56,2.44 1.92,3.24 5.08,3.24 h 1.52 v -3.88 c -1.4,0 -1.8,-0.52 -1.8,-1.88 v -7.84 c 0,-5.68 -2.44,-8.28 -8.76,-8.28 -5.4,0 -8.64,2.56 -8.8,6.64 z"
           style="font-weight:500;font-family:'Atlas Grotesk';-inkscape-font-specification:'Atlas Grotesk Medium';fill:#ffffff"
           id="path255" /><path
           d="m 232.2081,143.52023 h 5.4 v -31.52 h -5.4 z"
           style="font-weight:500;font-family:'Atlas Grotesk';-inkscape-font-specification:'Atlas Grotesk Medium';fill:#ffffff"
           id="path257" /><path
           d="m 275.96808,112.92023 h -24.76 v 4.48 h 9.6 v 26.12 h 5.56 v -26.12 h 9.6 z"
           style="font-weight:500;font-family:'Atlas Grotesk';-inkscape-font-specification:'Atlas Grotesk Medium';fill:#ffffff"
           id="path259" /><path
           d="m 285.36813,144.04023 c 6.24,0 10.36,-4.32 10.36,-11.2 0,-6.88 -3.88,-11.16 -10.32,-11.16 -6.44,0 -10.4,4.32 -10.4,11.16 0,6.88 3.76,11.2 10.36,11.2 z m 0,-18.64 c 3.48,0 4.8,3 4.8,7.44 0,4.4 -1.28,7.44 -4.76,7.44 -3.44,0 -4.84,-2.92 -4.84,-7.44 0,-4.36 1.4,-7.44 4.8,-7.44 z"
           style="font-weight:500;font-family:'Atlas Grotesk';-inkscape-font-specification:'Atlas Grotesk Medium';fill:#ffffff"
           id="path261" /><path
           d="m 309.60809,144.04023 c 6.24,0 10.36,-4.32 10.36,-11.2 0,-6.88 -3.88,-11.16 -10.32,-11.16 -6.44,0 -10.4,4.32 -10.4,11.16 0,6.88 3.76,11.2 10.36,11.2 z m 0,-18.64 c 3.48,0 4.8,3 4.8,7.44 0,4.4 -1.28,7.44 -4.76,7.44 -3.44,0 -4.84,-2.92 -4.84,-7.44 0,-4.36 1.4,-7.44 4.8,-7.44 z"
           style="font-weight:500;font-family:'Atlas Grotesk';-inkscape-font-specification:'Atlas Grotesk Medium';fill:#ffffff"
           id="path263" /><path
           d="m 324.72809,143.52023 h 5.4 v -31.52 h -5.4 z"
           style="font-weight:500;font-family:'Atlas Grotesk';-inkscape-font-specification:'Atlas Grotesk Medium';fill:#ffffff"
           id="path265" /><path
           d="m 351.92809,127.92023 c -0.32,-3.76 -2.96,-6.24 -8.28,-6.24 -5.6,0 -8.44,3.12 -8.44,6.84 0,3.8 2.2,5.68 6.12,6.2 l 3.36,0.44 c 2.28,0.28 2.84,1.08 2.84,2.52 0,1.76 -1.52,2.8 -3.88,2.8 -2.96,0 -3.88,-1.56 -4.04,-3.08 h -5 c 0.28,4.28 3.4,6.68 9,6.68 5.2,0 8.92,-2.44 8.92,-7.04 0,-3.8 -2,-5.68 -6.12,-6.24 l -3.48,-0.48 c -1.92,-0.28 -2.72,-1 -2.72,-2.4 0,-1.52 1.24,-2.64 3.36,-2.64 2.16,0 3.36,1.12 3.48,2.64 z"
           style="font-weight:500;font-family:'Atlas Grotesk';-inkscape-font-specification:'Atlas Grotesk Medium';fill:#ffffff"
           id="path267" /><path
           d="m 119.72813,170.78691 h 4.47999 v -3.84 h -4.47999 v -3.16 c 0,-2.44 1,-3.24 2.91999,-3.24 0.96001,0 1.64001,0.12 1.88001,0.16 v -3.92 c -0.40001,-0.08 -1.48,-0.24 -2.84,-0.24 -4.4,0 -7.28001,1.68 -7.28001,6.88 v 3.52 h -3.31999 v 3.84 h 3.31999 v 17.48 h 5.32001 z"
           style="font-weight:500;font-family:'Atlas Grotesk';-inkscape-font-specification:'Atlas Grotesk Medium';fill:#ffffff"
           id="path269" /><path
           d="m 136.56808,188.78691 c 6.24,0 10.36,-4.32 10.36,-11.2 0,-6.88 -3.88,-11.16 -10.32,-11.16 -6.44,0 -10.4,4.32 -10.4,11.16 0,6.88 3.76,11.2 10.36,11.2 z m 0,-18.64 c 3.48,0 4.8,3 4.8,7.44 0,4.4 -1.28,7.44 -4.76,7.44 -3.44,0 -4.84,-2.92 -4.84,-7.44 0,-4.36 1.4,-7.44 4.8,-7.44 z"
           style="font-weight:500;font-family:'Atlas Grotesk';-inkscape-font-specification:'Atlas Grotesk Medium';fill:#ffffff"
           id="path271" /><path
           d="m 151.68808,188.26691 h 5.36 v -10.92 c 0,-4.12 2.32,-5.72 6.12,-5.72 h 1 v -5.04 h -0.36 c -2.96,0 -5.84,1.8 -6.96,4.68 h -0.08 v -4.32 h -5.08 z"
           style="font-weight:500;font-family:'Atlas Grotesk';-inkscape-font-specification:'Atlas Grotesk Medium';fill:#ffffff"
           id="path273" /><path
           d="m 191.20809,161.42691 c 3.92,0 6.24,2.76 6.6,6.16 h 5.76 c -0.52,-6.88 -5.68,-10.4 -12.36,-10.4 -8.52,0 -14,6.04 -14,16.08 0,10.04 5.08,15.6 14.04,15.6 7.28,0 11.92,-4.4 12.32,-10.68 h -5.68 c -0.36,3.68 -2.48,6.48 -6.72,6.48 -5,0 -7.96,-4.24 -7.96,-11.56 0,-7.4 3.12,-11.68 8,-11.68 z"
           style="font-weight:500;font-family:'Atlas Grotesk';-inkscape-font-specification:'Atlas Grotesk Medium';fill:#ffffff"
           id="path275" /><path
           d="m 217.6481,188.78691 c 6.24,0 10.36,-4.32 10.36,-11.2 0,-6.88 -3.88,-11.16 -10.32,-11.16 -6.44,0 -10.4,4.32 -10.4,11.16 0,6.88 3.76,11.2 10.36,11.2 z m 0,-18.64 c 3.48,0 4.8,3 4.8,7.44 0,4.4 -1.28,7.44 -4.76,7.44 -3.44,0 -4.84,-2.92 -4.84,-7.44 0,-4.36 1.4,-7.44 4.8,-7.44 z"
           style="font-weight:500;font-family:'Atlas Grotesk';-inkscape-font-specification:'Atlas Grotesk Medium';fill:#ffffff"
           id="path277" /><path
           d="m 232.7681,188.26691 h 5.4 v -31.52 h -5.4 z"
           style="font-weight:500;font-family:'Atlas Grotesk';-inkscape-font-specification:'Atlas Grotesk Medium';fill:#ffffff"
           id="path279" /><path
           d="m 244.2881,188.26691 h 5.4 v -31.52 h -5.4 z"
           style="font-weight:500;font-family:'Atlas Grotesk';-inkscape-font-specification:'Atlas Grotesk Medium';fill:#ffffff"
           id="path281" /><path
           d="m 268.8881,175.54691 h -9.04 c 0.36,-3.48 1.88,-5.6 4.64,-5.6 2.96,0 4.2,2.16 4.4,5.36 z m 5.24,6.72 h -5.28 c -0.36,1.28 -1.2,2.8 -4.08,2.8 -3.16,0 -4.72,-2.12 -4.96,-6.16 h 14.56 v -1.72 c 0,-5.96 -2.84,-10.76 -9.84,-10.76 -6.44,0 -10.16,4.72 -10.16,11.2 0,6.68 3.48,11.16 10.2,11.16 5.48,0 8.88,-2.44 9.56,-6.52 z"
           style="font-weight:500;font-family:'Atlas Grotesk';-inkscape-font-specification:'Atlas Grotesk Medium';fill:#ffffff"
           id="path283" /><path
           d="m 297.60808,174.18691 c -0.24,-5.28 -4.16,-7.76 -9.36,-7.76 -6.44,0 -10.36,4.44 -10.36,11.2 0,6.92 3.68,11.16 10.28,11.16 5.28,0 9.24,-2.72 9.56,-8.08 h -5.2 c -0.08,1.88 -1.12,4.28 -4.32,4.28 -3.84,0 -4.8,-3.6 -4.8,-7.44 0,-4.08 1.36,-7.4 4.84,-7.4 2.64,0 3.88,1.8 4.08,4.04 z"
           style="font-weight:500;font-family:'Atlas Grotesk';-inkscape-font-specification:'Atlas Grotesk Medium';fill:#ffffff"
           id="path285" /><path
           d="m 303.80809,160.90691 v 1.56 c 0,3.96 -0.52,4.56 -3.28,4.56 h -0.72 v 3.76 h 3.44 v 11.48 c 0,4.44 2.24,6.32 6.44,6.32 1.8,0 3.36,-0.2 3.88,-0.28 v -4.04 c 0,0 -1.08,0.16 -2,0.16 -2.16,0 -3,-0.92 -3,-3.12 v -10.52 h 4.88 v -3.84 h -4.96 v -6.04 z"
           style="font-weight:500;font-family:'Atlas Grotesk';-inkscape-font-specification:'Atlas Grotesk Medium';fill:#ffffff"
           id="path287" /><path
           d="m 317.92806,162.86691 h 5.48 v -5.08 h -5.48 z m 0.04,25.4 h 5.4 v -21.32 h -5.4 z"
           style="font-weight:500;font-family:'Atlas Grotesk';-inkscape-font-specification:'Atlas Grotesk Medium';fill:#ffffff"
           id="path289" /><path
           d="m 334.48813,188.26691 h 5.6 l 7.52,-21.32 h -5.16 l -3.88,11.8 c -0.68,2.16 -1.16,4.28 -1.16,4.28 h -0.08 c 0,0 -0.44,-2.12 -1.16,-4.28 l -3.8,-11.8 h -5.44 z"
           style="font-weight:500;font-family:'Atlas Grotesk';-inkscape-font-specification:'Atlas Grotesk Medium';fill:#ffffff"
           id="path291" /><path
           d="m 364.00811,175.54691 h -9.04 c 0.36,-3.48 1.88,-5.6 4.64,-5.6 2.96,0 4.2,2.16 4.4,5.36 z m 5.24,6.72 h -5.28 c -0.36,1.28 -1.2,2.8 -4.08,2.8 -3.16,0 -4.72,-2.12 -4.96,-6.16 h 14.56 v -1.72 c 0,-5.96 -2.84,-10.76 -9.84,-10.76 -6.44,0 -10.16,4.72 -10.16,11.2 0,6.68 3.48,11.16 10.2,11.16 5.48,0 8.88,-2.44 9.56,-6.52 z"
           style="font-weight:500;font-family:'Atlas Grotesk';-inkscape-font-specification:'Atlas Grotesk Medium';fill:#ffffff"
           id="path293" /><path
           d="m 394.0481,177.34691 c 6.64,0 11.76,-2.88 11.76,-9.96 0,-6.92 -4.92,-9.72 -11.28,-9.72 h -10.16 v 30.6 h 5.6 v -10.92 z m -4.08,-4.16 v -11.4 h 4.44 c 3.68,0 5.84,1.6 5.84,5.64 0,3.84 -2.16,5.76 -5.92,5.76 z"
           style="font-weight:500;font-family:'Atlas Grotesk';-inkscape-font-specification:'Atlas Grotesk Medium';fill:#ffffff"
           id="path295" /><path
           d="m 409.2881,188.26691 h 5.36 v -10.92 c 0,-4.12 2.32,-5.72 6.12,-5.72 h 1 v -5.04 h -0.36 c -2.96,0 -5.84,1.8 -6.96,4.68 h -0.08 v -4.32 h -5.08 z"
           style="font-weight:500;font-family:'Atlas Grotesk';-inkscape-font-specification:'Atlas Grotesk Medium';fill:#ffffff"
           id="path297" /><path
           d="m 432.28814,184.94691 c -1.96,0 -3.12,-1.12 -3.12,-2.88 0,-1 0.32,-1.8 1.08,-2.32 1.12,-0.8 3.12,-1.12 6.88,-1.32 v 0.6 c 0,4.16 -2.48,5.92 -4.84,5.92 z m -2.36,-11.84 c 0.08,-1.68 1.12,-3.08 3.6,-3.08 2.44,0 3.56,1.32 3.56,4.2 v 1.08 c -4.6,0.2 -7.84,0.48 -10.08,1.64 -2.16,1.12 -3.2,2.92 -3.2,5.36 0,3.92 2.68,6.24 7.04,6.24 3.08,0 5.32,-1.24 6.56,-3.44 h 0.12 c 0.56,2.44 1.92,3.24 5.08,3.24 h 1.52 v -3.88 c -1.4,0 -1.8,-0.52 -1.8,-1.88 v -7.84 c 0,-5.68 -2.44,-8.28 -8.76,-8.28 -5.4,0 -8.64,2.56 -8.8,6.64 z"
           style="font-weight:500;font-family:'Atlas Grotesk';-inkscape-font-specification:'Atlas Grotesk Medium';fill:#ffffff"
           id="path299" /><path
           d="m 466.68813,174.18691 c -0.24001,-5.28 -4.16001,-7.76 -9.36001,-7.76 -6.44,0 -10.36,4.44 -10.36,11.2 0,6.92 3.68,11.16 10.28001,11.16 5.27999,0 9.24,-2.72 9.56,-8.08 h -5.20001 c -0.08,1.88 -1.11999,4.28 -4.32,4.28 -3.84,0 -4.79999,-3.6 -4.79999,-7.44 0,-4.08 1.35999,-7.4 4.83999,-7.4 2.64,0 3.88,1.8 4.08,4.04 z"
           style="font-weight:500;font-family:'Atlas Grotesk';-inkscape-font-specification:'Atlas Grotesk Medium';fill:#ffffff"
           id="path301" /><path
           d="m 472.88813,160.90691 v 1.56 c 0,3.96 -0.52,4.56 -3.28,4.56 h -0.72 v 3.76 h 3.44 v 11.48 c 0,4.44 2.24,6.32 6.44,6.32 1.8,0 3.36,-0.2 3.88,-0.28 v -4.04 c 0,0 -1.08,0.16 -2,0.16 -2.16,0 -3,-0.92 -3,-3.12 v -10.52 h 4.88 v -3.84 h -4.96 v -6.04 z"
           style="font-weight:500;font-family:'Atlas Grotesk';-inkscape-font-specification:'Atlas Grotesk Medium';fill:#ffffff"
           id="path303" /><path
           d="m 487.00811,162.86691 h 5.48 v -5.08 h -5.48 z m 0.04,25.4 h 5.4 v -21.32 h -5.4 z"
           style="font-weight:500;font-family:'Atlas Grotesk';-inkscape-font-specification:'Atlas Grotesk Medium';fill:#ffffff"
           id="path305" /><path
           d="m 516.92815,174.18691 c -0.24,-5.28 -4.16,-7.76 -9.36,-7.76 -6.44,0 -10.36,4.44 -10.36,11.2 0,6.92 3.68,11.16 10.28,11.16 5.28,0 9.24,-2.72 9.56,-8.08 h -5.2 c -0.08,1.88 -1.12,4.28 -4.32,4.28 -3.84,0 -4.8,-3.6 -4.8,-7.44 0,-4.08 1.36,-7.4 4.84,-7.4 2.64,0 3.88,1.8 4.08,4.04 z"
           style="font-weight:500;font-family:'Atlas Grotesk';-inkscape-font-specification:'Atlas Grotesk Medium';fill:#ffffff"
           id="path307" /><path
           d="m 534.88809,175.54691 h -9.04 c 0.36,-3.48 1.88,-5.6 4.64,-5.6 2.96,0 4.2,2.16 4.4,5.36 z m 5.24,6.72 h -5.28 c -0.36,1.28 -1.2,2.8 -4.08,2.8 -3.16,0 -4.72,-2.12 -4.96,-6.16 h 14.56 v -1.72 c 0,-5.96 -2.84,-10.76 -9.84,-10.76 -6.44,0 -10.16,4.72 -10.16,11.2 0,6.68 3.48,11.16 10.2,11.16 5.48,0 8.88,-2.44 9.56,-6.52 z"
           style="font-weight:500;font-family:'Atlas Grotesk';-inkscape-font-specification:'Atlas Grotesk Medium';fill:#ffffff"
           id="path309" /><path
           d="m 560.8081,172.66691 c -0.32,-3.76 -2.96,-6.24 -8.28,-6.24 -5.6,0 -8.44,3.12 -8.44,6.84 0,3.8 2.2,5.68 6.12,6.2 l 3.36,0.44 c 2.28,0.28 2.84,1.08 2.84,2.52 0,1.76 -1.52,2.8 -3.88,2.8 -2.96,0 -3.88,-1.56 -4.04,-3.08 h -5 c 0.28,4.28 3.4,6.68 9,6.68 5.2,0 8.92,-2.44 8.92,-7.04 0,-3.8 -2,-5.68 -6.12,-6.24 l -3.48,-0.48 c -1.92,-0.28 -2.72,-1 -2.72,-2.4 0,-1.52 1.24,-2.64 3.36,-2.64 2.16,0 3.36,1.12 3.48,2.64 z"
           style="font-weight:500;font-family:'Atlas Grotesk';-inkscape-font-specification:'Atlas Grotesk Medium';fill:#ffffff"
           id="path311" /></g></g></g></svg>
