<?xml version="1.0" encoding="utf-8"?>
<!-- Generator: Adobe Illustrator 27.3.1, SVG Export Plug-In . SVG Version: 6.00 Build 0)  -->
<svg version="1.1" id="Ebene_1" xmlns="http://www.w3.org/2000/svg" xmlns:xlink="http://www.w3.org/1999/xlink" x="0px" y="0px"
	 viewBox="0 0 375 150" style="enable-background:new 0 0 375 150;" xml:space="preserve">
<g>
	<g>
		<g>
			<path d="M35.5,36.7h-4v-7.8h-7.9v7.8h-4V18.3h4v7.5h7.9v-7.5h4V36.7z"/>
			<path d="M186.5,20.8c-0.4,0-0.8,0-1.2,0c-0.8,0-1.3,0.2-1.6,0.6c-0.2,0.3-0.3,0.8-0.3,1.5v1h2.9v2.4h-2.9v10.4h-3.7V26.3h-2.5
				v-2.4h2.5v-1.1c0-3,1.5-4.6,4.4-4.6c0.6,0,1.4,0,2.4,0.1L186.5,20.8L186.5,20.8z"/>
			<path d="M239.8,36c-2.5,0.7-4.9,1-7,1c-3,0-5.3-0.8-7-2.5c-1.7-1.7-2.5-4-2.5-7c0-2.9,0.8-5.2,2.5-7c1.7-1.8,4-2.6,6.8-2.6
				c4.5,0,6.9,1.9,7.2,5.7h-4c-0.3-1.8-1.4-2.8-3.5-2.8c-1.7,0-3,0.7-3.8,2.1c-0.7,1.2-1.1,2.7-1.1,4.5c0,2,0.4,3.5,1.3,4.7
				c1,1.3,2.4,2,4.3,2c1.1,0,2.2-0.1,3.1-0.4v-4.3h-3.9v-2.7h7.7L239.8,36L239.8,36z"/>
			<path d="M35.5,100h-4v-7.8h-7.9v7.8h-4V81.7h4v7.5h7.9v-7.5h4V100z"/>
			<path d="M52.7,93.6c0,2.1-0.6,3.8-1.9,4.9c-1.2,1.2-2.9,1.8-5.1,1.8c-4.3,0-6.9-2.5-6.9-6.7c0-2.1,0.6-3.7,1.9-4.9
				c1.3-1.2,3-1.8,5.1-1.8C50.1,86.9,52.7,89.3,52.7,93.6z M48.9,93.6c0-1.2-0.2-2.2-0.6-3c-0.5-1-1.4-1.5-2.5-1.5
				c-2,0-3.1,1.5-3.1,4.5c0,3,1,4.5,3.1,4.5c1.1,0,2-0.5,2.5-1.5C48.7,95.8,48.9,94.8,48.9,93.6z"/>
			<path d="M67.7,95.4c0,1.6-0.7,2.9-2,3.8c-1.1,0.7-2.5,1.1-4.2,1.1c-4.2,0-6.6-2.4-6.6-6.6c0-2.1,0.6-3.8,1.8-5s2.9-1.8,5-1.8
				c1.7,0,3,0.4,4,1.1c1.1,0.8,1.8,2,1.9,3.7h-3.7c-0.1-1.7-0.8-2.6-2.3-2.6c-1.9,0-2.9,1.5-2.9,4.5c0,3,0.9,4.5,2.8,4.5
				c1.5,0,2.3-0.9,2.4-2.8h3.8L67.7,95.4L67.7,95.4z"/>
			<path d="M82.8,100h-3.7v-6.8c0-1.1-0.1-2-0.4-2.5c-0.3-0.8-1-1.2-2.1-1.2c-1,0-1.8,0.5-2.2,1.5c-0.3,0.7-0.5,1.5-0.5,2.4v6.6
				h-3.7V81.7H74v7.4c1.1-1.4,2.4-2.1,4.1-2.1c3.1,0,4.7,1.6,4.7,4.7V100z"/>
			<path d="M97.6,96.1c0,1.5-0.7,2.6-2,3.3c-1,0.6-2.4,0.8-4,0.8c-3.8,0-5.7-1.5-5.7-4.4h3.7c0,1.5,0.8,2.3,2.2,2.3
				c1.1,0,2.1-0.7,2.1-1.7c0-0.8-0.8-1.4-2.4-1.8c-1.9-0.5-3-0.8-3.5-1c-1.2-0.6-1.8-1.6-1.8-2.9c0-1.4,0.6-2.4,1.8-3.1
				c1-0.5,2.2-0.8,3.7-0.8c3.5,0,5.4,1.4,5.5,4.1h-3.6c0-1.4-0.7-2-2-2c-0.5,0-0.9,0.1-1.3,0.3c-0.4,0.2-0.6,0.6-0.6,1.1
				c0,0.8,0.8,1.3,2.5,1.7c1.9,0.5,3.1,0.8,3.6,1.1C97,93.8,97.6,94.8,97.6,96.1z"/>
			<path d="M112.5,95.4c0,1.6-0.7,2.9-2,3.8c-1.1,0.7-2.5,1.1-4.2,1.1c-4.2,0-6.6-2.4-6.6-6.6c0-2.1,0.6-3.8,1.8-5s2.9-1.8,5-1.8
				c1.7,0,3,0.4,4,1.1c1.1,0.8,1.8,2,1.9,3.7h-3.7c-0.1-1.7-0.8-2.6-2.3-2.6c-1.9,0-2.9,1.5-2.9,4.5c0,3,0.9,4.5,2.8,4.5
				c1.5,0,2.3-0.9,2.4-2.8h3.8L112.5,95.4L112.5,95.4z"/>
			<path d="M127.7,100H124v-6.8c0-1.1-0.1-2-0.4-2.5c-0.3-0.8-1-1.2-2.1-1.2c-1,0-1.8,0.5-2.2,1.5c-0.3,0.7-0.5,1.5-0.5,2.4v6.6
				h-3.7V81.7h3.7v7.4c1.1-1.4,2.4-2.1,4.1-2.1c3.1,0,4.7,1.6,4.7,4.7V100z"/>
			<path d="M144.1,100h-3.7l0-2c-1.1,1.4-2.5,2.1-4.2,2.1c-3.1,0-4.7-1.6-4.7-4.7v-8.3h3.7V94c0,1.2,0.1,2,0.3,2.5
				c0.4,0.8,1,1.2,2,1.2c1.8,0,2.7-1.3,2.7-3.9v-6.6h3.7v8.1C144,97.3,144.1,98.9,144.1,100z"/>
			<path d="M151.5,100h-3.7V81.7h3.7V100z"/>
			<path d="M167.4,94.3h-9.2c0,1.1,0.2,1.9,0.7,2.6c0.5,0.8,1.3,1.2,2.3,1.2c1.5,0,2.4-0.7,2.6-2.2h3.6c-0.2,1.5-0.9,2.7-2.2,3.5
				c-1,0.6-2.4,1-4.1,1c-4.2,0-6.5-2.3-6.5-6.4c0-4.3,2.3-7,6.6-7c2.8,0,4.7,1.1,5.7,3.4C167.2,91.2,167.4,92.5,167.4,94.3z
				 M163.8,92.2c0-2.1-0.9-3.1-2.7-3.1c-1.8,0-2.9,1.3-2.9,3.1H163.8z"/>
			<path d="M186.5,84.1c-0.4,0-0.8,0-1.2,0c-0.8,0-1.3,0.2-1.6,0.6c-0.2,0.3-0.3,0.8-0.3,1.5v1h2.9v2.4h-2.9V100h-3.7V89.6h-2.5
				v-2.4h2.5v-1.1c0-3,1.5-4.6,4.4-4.6c0.6,0,1.4,0,2.4,0.1L186.5,84.1L186.5,84.1z"/>
			<path d="M201.4,100h-3.7l0-2c-1.1,1.4-2.5,2.1-4.2,2.1c-3.1,0-4.7-1.6-4.7-4.7v-8.3h3.7V94c0,1.2,0.1,2,0.3,2.5
				c0.3,0.8,1,1.2,2,1.2c1.8,0,2.7-1.3,2.7-3.9v-6.6h3.7v8.1C201.3,97.3,201.4,98.9,201.4,100z M193.9,84.6h-3.3v-3h3.3V84.6z
				 M199.9,84.6h-3.4v-3h3.4V84.6z"/>
			<path d="M213.3,90.4c-0.4,0-0.8-0.1-1.1-0.1c-2.2,0-3.3,1.2-3.3,3.7v6h-3.7v-9.7c0-0.3,0-0.8,0-1.5c0-0.7,0-1.2,0-1.6h3.6
				l0.1,2.4c0.8-1.6,2.1-2.4,4-2.4c0.3,0,0.5,0,0.6,0V90.4z"/>
			<path d="M239.8,99.3c-2.5,0.7-4.9,1-7,1c-3,0-5.3-0.8-7-2.5c-1.7-1.7-2.5-4-2.5-7c0-2.9,0.8-5.2,2.5-7c1.7-1.8,4-2.6,6.8-2.6
				c4.5,0,6.9,1.9,7.2,5.7h-4c-0.3-1.8-1.4-2.8-3.5-2.8c-1.7,0-3,0.7-3.8,2.1c-0.7,1.2-1.1,2.7-1.1,4.5c0,2,0.4,3.5,1.3,4.7
				c1,1.3,2.4,2,4.3,2c1.1,0,2.2-0.1,3.1-0.4v-4.3h-3.9v-2.7h7.7L239.8,99.3L239.8,99.3z"/>
			<path d="M255.6,94.3h-9.2c0,1.1,0.2,1.9,0.7,2.6c0.5,0.8,1.3,1.2,2.3,1.2c1.5,0,2.4-0.7,2.6-2.2h3.6c-0.2,1.5-0.9,2.7-2.2,3.5
				c-1,0.6-2.4,1-4.1,1c-4.2,0-6.5-2.3-6.5-6.4c0-4.3,2.3-7,6.6-7c2.8,0,4.7,1.1,5.7,3.4C255.5,91.2,255.6,92.5,255.6,94.3z
				 M252.1,92.2c0-2.1-0.9-3.1-2.7-3.1c-1.8,0-2.9,1.3-2.9,3.1H252.1z"/>
			<path d="M269.5,96.1c0,1.5-0.7,2.6-2,3.3c-1,0.6-2.4,0.8-4,0.8c-3.8,0-5.7-1.5-5.7-4.4h3.7c0,1.5,0.8,2.3,2.2,2.3
				c1.1,0,2.1-0.7,2.1-1.7c0-0.8-0.8-1.4-2.4-1.8c-1.9-0.5-3-0.8-3.5-1c-1.2-0.6-1.8-1.6-1.8-2.9c0-1.4,0.6-2.4,1.8-3.1
				c1-0.5,2.2-0.8,3.7-0.8c3.5,0,5.4,1.4,5.5,4.1h-3.6c0-1.4-0.7-2-2-2c-0.5,0-0.9,0.1-1.3,0.3c-0.4,0.2-0.6,0.6-0.6,1.1
				c0,0.8,0.8,1.3,2.5,1.7c1.9,0.5,3.1,0.8,3.6,1.1C268.9,93.8,269.5,94.8,269.5,96.1z"/>
			<path d="M280.1,89.6h-3v5.8c0,0.8,0.1,1.4,0.2,1.7c0.2,0.4,0.8,0.5,1.5,0.5c-0.2,0,0.2,0,1.2-0.1v2.4c-0.9,0.1-1.8,0.2-2.6,0.2
				c-1.4,0-2.4-0.2-2.9-0.6c-0.7-0.5-1-1.5-1-2.8v-7.1h-2.5v-2.4h2.5v-2.1l3.6-1.5v3.6h3L280.1,89.6L280.1,89.6z"/>
			<path d="M294.1,100h-3.5c-0.2-0.5-0.3-1.1-0.3-1.8c-0.9,1.3-2.3,2-4.1,2c-1.3,0-2.4-0.3-3.2-0.9c-0.9-0.7-1.3-1.7-1.3-3
				c0-2.9,2.5-4.3,7.5-4.3h1v-0.5c0-1.8-0.6-2.7-1.9-2.7c-1.3,0-2,0.7-2,2h-3.8c0-1.5,0.6-2.5,1.8-3.2c1-0.6,2.3-0.8,3.8-0.8
				c1.9,0,3.3,0.3,4.1,0.9c1,0.7,1.5,2.1,1.5,4.1v3.8C293.8,97.5,293.9,99,294.1,100z M290.3,94c0-0.2,0-0.2-0.1-0.2
				c0,0-0.2,0-0.4,0h-0.5c-2.6,0-3.9,0.8-3.9,2.4c0,1.1,0.9,1.9,2.1,1.9C289.3,98,290.3,96.7,290.3,94z"/>
			<path d="M301.2,100h-3.7V81.7h3.7V100z"/>
			<path d="M312.7,89.6h-3v5.8c0,0.8,0.1,1.4,0.2,1.7c0.2,0.4,0.8,0.5,1.5,0.5c-0.2,0,0.2,0,1.2-0.1v2.4c-0.9,0.1-1.8,0.2-2.6,0.2
				c-1.4,0-2.4-0.2-2.9-0.6c-0.7-0.5-1-1.5-1-2.8v-7.1h-2.5v-2.4h2.5v-2.1l3.6-1.5v3.6h3L312.7,89.6L312.7,89.6z"/>
			<path d="M327.8,100h-3.7l0-2c-1.1,1.4-2.5,2.1-4.2,2.1c-3.1,0-4.7-1.6-4.7-4.7v-8.3h3.7V94c0,1.2,0.1,2,0.3,2.5
				c0.4,0.8,1,1.2,2.1,1.2c1.8,0,2.7-1.3,2.7-3.9v-6.6h3.7v8.1C327.7,97.3,327.8,98.9,327.8,100z"/>
			<path d="M344,100h-3.7v-6.8c0-1.2-0.1-2-0.3-2.5c-0.4-0.8-1-1.2-2.1-1.2c-1,0-1.8,0.5-2.2,1.5c-0.3,0.7-0.5,1.5-0.5,2.6v6.4h-3.7
				V89.7c0-0.9,0-1.7-0.1-2.5h3.7l0,2c1.1-1.5,2.5-2.2,4.2-2.2c3.1,0,4.7,1.6,4.7,4.7L344,100L344,100z"/>
			<path d="M360.5,87.2c0,1.9-0.1,3.1-0.1,3.5v6.8c0,5-2,7.4-6.7,7.4c-1.6,0-2.9-0.2-4-0.8c-1.3-0.7-2-1.8-2-3.2v-0.2h3.5
				c0,1.3,0.9,2,2.5,2c1.1,0,1.9-0.3,2.4-1c0.4-0.5,0.6-1.3,0.6-2.4v-1.8c-1,1.4-2.3,2.1-4.1,2.1c-1.8,0-3.2-0.6-4.2-1.9
				c-0.9-1.1-1.4-2.7-1.4-4.5c0-1.8,0.5-3.4,1.4-4.5c1-1.3,2.4-1.9,4.2-1.9c1.9,0,3.3,0.7,4.3,2.2v-2L360.5,87.2L360.5,87.2z
				 M356.8,93.2c0-1.1-0.2-2-0.6-2.7c-0.5-0.9-1.3-1.3-2.3-1.3c-1,0-1.8,0.5-2.3,1.4c-0.4,0.7-0.6,1.7-0.6,2.8s0.2,2,0.6,2.8
				c0.5,0.9,1.3,1.3,2.3,1.3c1.1,0,1.8-0.5,2.4-1.4C356.6,95.3,356.8,94.4,356.8,93.2z"/>
			<path d="M33.6,126.2c0,2-0.8,3.4-2.5,4.5c-1.4,0.9-3.1,1.3-5.2,1.3c-2.1,0-3.9-0.4-5.1-1.3c-1.4-1-2.1-2.6-2.2-4.6h4
				c0.1,2.1,1.2,3.1,3.4,3.1c0.9,0,1.7-0.2,2.3-0.6c0.7-0.5,1.1-1.2,1.1-2c0-0.8-0.5-1.5-1.6-1.9c-0.7-0.2-1.8-0.5-3.2-1
				c-1.8-0.6-3.1-1.1-3.8-1.7c-1.2-0.9-1.8-2.1-1.8-3.6c0-1.9,0.8-3.3,2.3-4.3c1.3-0.8,2.9-1.2,4.9-1.2c4.4,0,6.6,1.8,6.7,5.3h-4
				c-0.2-1.8-1.2-2.6-3-2.6c-0.8,0-1.5,0.2-2,0.6c-0.6,0.4-0.9,1-0.9,1.8c0,0.5,0.2,0.9,0.6,1.2c0.4,0.3,1.3,0.7,2.8,1.2
				c1,0.3,2,0.7,3.1,1c1.3,0.5,2.3,1.1,2.9,1.7C33.2,123.9,33.6,124.9,33.6,126.2z"/>
			<path d="M48.7,127.1c0,1.6-0.7,2.9-2,3.8c-1.1,0.7-2.5,1.1-4.2,1.1c-4.2,0-6.6-2.4-6.6-6.6c0-2.1,0.6-3.8,1.8-5s2.9-1.8,5-1.8
				c1.7,0,3,0.4,4,1.1c1.1,0.8,1.8,2,1.9,3.7H45c-0.1-1.7-0.8-2.6-2.3-2.6c-1.9,0-2.9,1.5-2.9,4.5c0,3,0.9,4.5,2.8,4.5
				c1.5,0,2.3-0.9,2.4-2.8h3.8L48.7,127.1L48.7,127.1z"/>
			<path d="M63.9,131.7h-3.7v-6.8c0-1.1-0.1-2-0.4-2.5c-0.3-0.8-1-1.2-2.1-1.2c-1,0-1.8,0.5-2.2,1.5c-0.3,0.7-0.5,1.5-0.5,2.4v6.6
				h-3.7v-18.3h3.7v7.4c1.1-1.4,2.4-2.1,4.1-2.1c3.1,0,4.7,1.6,4.7,4.7V131.7z"/>
			<path d="M89.2,118.9l-4.4,12.8h-4l-3-9.7l-3.2,9.7h-4l-4.5-12.8h4l2.6,9.7l3.1-9.7h4.2l2.9,9.7l2.7-9.7H89.2z"/>
			<path d="M102.5,131.7H99c-0.2-0.5-0.3-1.1-0.3-1.8c-0.9,1.3-2.3,2-4.1,2c-1.3,0-2.4-0.3-3.2-0.9c-0.9-0.7-1.3-1.7-1.3-3
				c0-2.9,2.5-4.3,7.5-4.3h1v-0.5c0-1.8-0.6-2.7-1.9-2.7c-1.3,0-2,0.7-2,2H91c0-1.5,0.6-2.5,1.8-3.2c1-0.6,2.3-0.8,3.8-0.8
				c1.9,0,3.3,0.3,4.1,0.9c1,0.7,1.5,2.1,1.5,4.1v3.8C102.3,129.2,102.4,130.6,102.5,131.7z M95.4,116.2H92v-3h3.3V116.2z
				 M98.7,125.7c0-0.2,0-0.2-0.1-0.2c0,0-0.2,0-0.4,0h-0.5c-2.6,0-3.9,0.8-3.9,2.4c0,1.1,0.9,1.9,2.1,1.9
				C97.7,129.7,98.7,128.4,98.7,125.7z M101.4,116.2H98v-3h3.4V116.2z"/>
			<path d="M119.4,125.1c0,2-0.5,3.5-1.4,4.8c-1,1.3-2.5,2-4.4,2c-1.5,0-2.9-0.6-4-1.9l-0.1,1.7h-3.7c0.1-0.8,0.1-2,0.1-3.4v-14.9
				h3.7v7.3c1.1-1.4,2.5-2.1,4.1-2.1c1.8,0,3.3,0.6,4.2,1.9C118.9,121.7,119.4,123.2,119.4,125.1z M115.6,125.2
				c0-1.1-0.2-2.1-0.6-2.8c-0.5-0.9-1.2-1.4-2.3-1.4c-1.1,0-1.9,0.5-2.4,1.4c-0.4,0.8-0.7,1.7-0.7,2.9c0,1.1,0.2,2.1,0.6,2.9
				c0.5,1,1.2,1.5,2.3,1.5C114.5,129.5,115.6,128.1,115.6,125.2z"/>
			<path d="M126.1,116.3h-3.8v-2.9h3.8V116.3z M126.1,131.7h-3.7v-12.8h3.7V131.7z"/>
			<path d="M140.8,127.8c0,1.5-0.7,2.6-2,3.3c-1,0.6-2.4,0.8-4,0.8c-3.8,0-5.7-1.5-5.7-4.4h3.7c0,1.5,0.8,2.3,2.2,2.3
				c1.1,0,2.1-0.7,2.1-1.7c0-0.8-0.8-1.4-2.4-1.8c-1.9-0.5-3-0.8-3.5-1c-1.2-0.6-1.8-1.6-1.8-2.9c0-1.4,0.6-2.4,1.8-3.1
				c1-0.5,2.2-0.8,3.7-0.8c3.5,0,5.4,1.4,5.5,4.1h-3.6c0-1.4-0.7-2-2-2c-0.5,0-0.9,0.1-1.3,0.3c-0.4,0.2-0.6,0.6-0.6,1.1
				c0,0.8,0.8,1.3,2.5,1.7c1.9,0.5,3.1,0.8,3.6,1.1C140.2,125.5,140.8,126.5,140.8,127.8z"/>
			<path d="M155.8,127.1c0,1.6-0.7,2.9-2,3.8c-1.1,0.7-2.5,1.1-4.2,1.1c-4.2,0-6.6-2.4-6.6-6.6c0-2.1,0.6-3.8,1.8-5s2.9-1.8,5-1.8
				c1.7,0,3,0.4,4,1.1c1.1,0.8,1.8,2,1.9,3.7H152c-0.1-1.7-0.8-2.6-2.3-2.6c-1.9,0-2.9,1.5-2.9,4.5c0,3,0.9,4.5,2.8,4.5
				c1.5,0,2.3-0.9,2.4-2.8h3.8L155.8,127.1L155.8,127.1z"/>
			<path d="M170.9,131.7h-3.7v-6.8c0-1.1-0.1-2-0.4-2.5c-0.3-0.8-1-1.2-2.1-1.2c-1,0-1.8,0.5-2.2,1.5c-0.3,0.7-0.5,1.5-0.5,2.4v6.6
				h-3.7v-18.3h3.7v7.4c1.1-1.4,2.4-2.1,4.1-2.1c3.1,0,4.7,1.6,4.7,4.7V131.7z"/>
			<path d="M199,131c-2.5,0.7-4.9,1-7,1c-3,0-5.3-0.8-7-2.5c-1.7-1.7-2.5-4-2.5-7c0-2.9,0.8-5.2,2.5-7c1.7-1.8,4-2.6,6.8-2.6
				c4.5,0,6.9,1.9,7.2,5.7h-4c-0.3-1.8-1.4-2.8-3.5-2.8c-1.7,0-3,0.7-3.8,2.1c-0.7,1.2-1.1,2.7-1.1,4.5c0,2,0.4,3.5,1.3,4.7
				c1,1.3,2.4,2,4.3,2c1.1,0,2.2-0.1,3.1-0.4v-4.3h-3.9v-2.7h7.7L199,131L199,131z"/>
			<path d="M224,131.7h-3.7v-7.1c0-1-0.1-1.8-0.4-2.3c-0.4-0.7-1-1-2-1c-1.7,0-2.6,1.2-2.6,3.5v7h-3.7v-7.1c0-2.3-0.8-3.4-2.4-3.4
				c-1.8,0-2.6,1.1-2.6,3.4v7.1h-3.7v-8.5c0-1.1,0-2.6-0.1-4.3h3.6l0.1,2c0.9-1.5,2.4-2.2,4.3-2.2c2,0,3.4,0.8,4,2.5
				c0.9-1.7,2.5-2.5,4.6-2.5c3.1,0,4.6,1.7,4.6,5L224,131.7L224,131.7z"/>
			<path d="M240.4,131.7h-3.7l0-2c-1.1,1.4-2.5,2.1-4.2,2.1c-3.1,0-4.7-1.6-4.7-4.7v-8.3h3.7v6.8c0,1.2,0.1,2,0.3,2.5
				c0.3,0.8,1,1.2,2,1.2c1.8,0,2.7-1.3,2.7-3.9v-6.6h3.7v8.1C240.3,129,240.4,130.6,240.4,131.7z M232.9,116.2h-3.3v-3h3.3V116.2z
				 M238.9,116.2h-3.4v-3h3.4V116.2z"/>
			<path d="M256.6,131.7h-3.7v-6.8c0-1.2-0.1-2-0.3-2.5c-0.3-0.8-1-1.2-2.1-1.2c-1,0-1.8,0.5-2.2,1.5c-0.3,0.7-0.5,1.5-0.5,2.6v6.4
				h-3.7v-10.3c0-0.9,0-1.7-0.1-2.5h3.7l0,2c1.1-1.5,2.5-2.2,4.2-2.2c3.1,0,4.7,1.6,4.7,4.7L256.6,131.7L256.6,131.7z"/>
			<path d="M273.1,131.7h-3.7l-0.1-1.7c-1.1,1.3-2.4,1.9-4,1.9c-1.8,0-3.3-0.7-4.3-2c-0.9-1.2-1.4-2.7-1.4-4.6
				c0-1.8,0.4-3.3,1.3-4.6c1-1.5,2.4-2.2,4.3-2.2c1.8,0,3.1,0.6,4.1,1.9v-7.2h3.7v14.9C273,129.8,273,131,273.1,131.7z M269.3,125.2
				c0-1.2-0.2-2.1-0.7-2.9c-0.6-0.9-1.4-1.4-2.5-1.4c-1.9,0-2.8,1.4-2.8,4.2c0,2.9,1,4.4,3,4.4c1,0,1.8-0.5,2.3-1.5
				C269.1,127.3,269.3,126.4,269.3,125.2z"/>
		</g>
	</g>
</g>
</svg>
