<?xml version="1.0" encoding="UTF-8" standalone="no"?>
<svg
   xmlns:dc="http://purl.org/dc/elements/1.1/"
   xmlns:cc="http://creativecommons.org/ns#"
   xmlns:rdf="http://www.w3.org/1999/02/22-rdf-syntax-ns#"
   xmlns:svg="http://www.w3.org/2000/svg"
   xmlns="http://www.w3.org/2000/svg"
   xmlns:sodipodi="http://sodipodi.sourceforge.net/DTD/sodipodi-0.dtd"
   xmlns:inkscape="http://www.inkscape.org/namespaces/inkscape"
   version="1.1"
   id="Calque_1"
   x="0px"
   y="0px"
   viewBox="0 0 209.76 175.75"
   style="enable-background:new 0 0 209.76 175.75;"
   xml:space="preserve"
   sodipodi:docname="logocite.svg"
   inkscape:version="1.0.2 (e86c870879, 2021-01-15)"><metadata
   id="metadata54"><rdf:RDF><cc:Work
       rdf:about=""><dc:format>image/svg+xml</dc:format><dc:type
         rdf:resource="http://purl.org/dc/dcmitype/StillImage" /><dc:title /></cc:Work></rdf:RDF></metadata><defs
   id="defs52" /><sodipodi:namedview
   pagecolor="#505050"
   bordercolor="#ffffff"
   borderopacity="1"
   objecttolerance="10"
   gridtolerance="10"
   guidetolerance="10"
   inkscape:pageopacity="0"
   inkscape:pageshadow="2"
   inkscape:window-width="1818"
   inkscape:window-height="954"
   id="namedview50"
   showgrid="false"
   inkscape:zoom="1.7414185"
   inkscape:cx="-228.04488"
   inkscape:cy="87.875"
   inkscape:window-x="0"
   inkscape:window-y="0"
   inkscape:window-maximized="0"
   inkscape:current-layer="Calque_1"
   inkscape:document-rotation="0" />
<style
   type="text/css"
   id="style2">
	.Voûte _x002D__x0020_Vert{fill:url(#SVGID_1_);stroke:#FFFFFF;stroke-width:0.25;stroke-miterlimit:1;}
	.st0{fill:#009534;}
</style>
<linearGradient
   id="SVGID_1_"
   gradientUnits="userSpaceOnUse"
   x1="0"
   y1="175.75"
   x2="0.7071"
   y2="175.0429">
	<stop
   offset="0"
   style="stop-color:#259E2E"
   id="stop4" />
	<stop
   offset="0.9831"
   style="stop-color:#1C381D"
   id="stop6" />
</linearGradient>
<g
   id="g47"
   style="fill:#000000">
	<g
   id="g45"
   style="fill:#000000">
		<g
   id="g17"
   style="fill:#000000">
			<path
   class="st0"
   d="M43.65,40.81c-10.05,0-17.51-7.75-17.51-17.56v-0.1c0-9.71,7.32-17.66,17.8-17.66     c6.44,0,10.29,2.14,13.46,5.27l-4.78,5.51c-2.63-2.39-5.32-3.85-8.73-3.85c-5.75,0-9.9,4.78-9.9,10.63v0.1     c0,5.85,4.05,10.73,9.9,10.73c3.9,0,6.29-1.56,8.98-4l4.78,4.83C54.13,38.47,50.23,40.81,43.65,40.81z"
   id="path9"
   style="fill:#000000" />
			<path
   class="st0"
   d="M62.42,11.2V4.62h7.8v6.58H62.42z M62.62,40.22V14.08h7.41v26.14H62.62z"
   id="path11"
   style="fill:#000000" />
			<path
   class="st0"
   d="M85.83,40.66c-4.54,0-7.61-1.81-7.61-7.85V20.42H75.1v-6.34h3.12V7.4h7.41v6.68h6.15v6.34h-6.15v11.17     c0,1.71,0.73,2.54,2.39,2.54c1.37,0,2.59-0.34,3.66-0.93v5.95C90.12,40.08,88.32,40.66,85.83,40.66z"
   id="path13"
   style="fill:#000000" />
			<path
   class="st0"
   d="M121.28,29.74h-18.19c0.73,3.36,3.07,5.12,6.39,5.12c2.49,0,4.29-0.78,6.34-2.68l4.25,3.76     c-2.44,3.02-5.95,4.88-10.68,4.88c-7.85,0-13.66-5.51-13.66-13.51v-0.1c0-7.46,5.32-13.61,12.92-13.61     c8.73,0,12.73,6.78,12.73,14.19v0.1C121.38,28.62,121.33,29.05,121.28,29.74z M108.65,19.54c-3.07,0-5.07,2.19-5.66,5.56h11.17     C113.72,21.79,111.77,19.54,108.65,19.54z M105.68,11.2l5.51-8.63l6.39,2.78l-6.24,5.85H105.68z"
   id="path15"
   style="fill:#000000" />
		</g>
		<g
   id="g21"
   style="fill:#000000">
			<path
   class="st0"
   d="M45.75,87.23v-3.76c-1.8,2.44-4.29,4.24-8.14,4.24c-6.1,0-11.9-4.78-11.9-13.51v-0.1     c0-8.73,5.71-13.51,11.9-13.51c3.95,0,6.39,1.81,8.14,3.9V51.63h7.41v35.6H45.75z M45.84,74.11c0-4.34-2.88-7.22-6.34-7.22     c-3.46,0-6.39,2.83-6.39,7.22v0.1c0,4.34,2.93,7.22,6.39,7.22c3.46,0,6.34-2.88,6.34-7.22V74.11z"
   id="path19"
   style="fill:#000000" />
		</g>
		<g
   id="g25"
   style="fill:#000000">
			<path
   class="st0"
   d="M75.4,87.23v-3.71c-1.71,2.19-3.9,4.19-7.66,4.19c-5.61,0-8.88-3.71-8.88-9.7V61.09h7.41v14.58     c0,3.51,1.66,5.32,4.49,5.32c2.83,0,4.63-1.81,4.63-5.32V61.09h7.41v26.14H75.4z"
   id="path23"
   style="fill:#000000" />
		</g>
		<g
   id="g39"
   style="fill:#000000">
			<path
   class="st0"
   d="M45.75,134.25v-3.76c-1.8,2.44-4.29,4.24-8.14,4.24c-6.1,0-11.9-4.78-11.9-13.51v-0.1     c0-8.73,5.71-13.51,11.9-13.51c3.95,0,6.39,1.81,8.14,3.9V98.64h7.41v35.61H45.75z M45.84,121.12c0-4.34-2.88-7.22-6.34-7.22     c-3.46,0-6.39,2.83-6.39,7.22v0.1c0,4.34,2.93,7.22,6.39,7.22c3.46,0,6.34-2.88,6.34-7.22V121.12z"
   id="path27"
   style="fill:#000000" />
			<path
   class="st0"
   d="M84.22,123.76H66.03c0.73,3.36,3.07,5.12,6.39,5.12c2.49,0,4.29-0.78,6.34-2.68l4.24,3.76     c-2.44,3.02-5.95,4.88-10.68,4.88c-7.85,0-13.66-5.51-13.66-13.51v-0.1c0-7.46,5.32-13.61,12.92-13.61     c8.73,0,12.73,6.78,12.73,14.19v0.1C84.32,122.64,84.27,123.08,84.22,123.76z M71.59,113.57c-3.07,0-5.07,2.2-5.66,5.56H77.1     C76.66,115.81,74.71,113.57,71.59,113.57z"
   id="path29"
   style="fill:#000000" />
			<path
   class="st0"
   d="M98.8,134.73c-3.66,0-7.75-1.22-11.22-3.95l3.17-4.88c2.83,2.05,5.8,3.12,8.24,3.12     c2.15,0,3.12-0.78,3.12-1.95v-0.1c0-1.61-2.54-2.15-5.41-3.02c-3.66-1.07-7.8-2.78-7.8-7.85V116c0-5.32,4.29-8.29,9.56-8.29     c3.32,0,6.92,1.12,9.75,3.02l-2.83,5.12c-2.58-1.51-5.17-2.44-7.07-2.44c-1.8,0-2.73,0.78-2.73,1.81v0.1     c0,1.46,2.49,2.14,5.32,3.12c3.66,1.22,7.9,2.97,7.9,7.75v0.1C108.8,132.1,104.46,134.73,98.8,134.73z"
   id="path31"
   style="fill:#000000" />
			<path
   class="st0"
   d="M114.26,105.23v-6.58h7.81v6.58H114.26z M114.45,134.25V108.1h7.42v26.14H114.45z"
   id="path33"
   style="fill:#000000" />
			<path
   class="st0"
   d="M140.35,142.15c-4.24,0-8.24-0.98-11.56-2.73l2.54-5.56c2.68,1.51,5.36,2.39,8.83,2.39     c5.07,0,7.46-2.44,7.46-7.12v-1.27c-2.2,2.63-4.58,4.25-8.54,4.25c-6.1,0-11.61-4.44-11.61-12.19v-0.1     c0-7.8,5.61-12.19,11.61-12.19c4.05,0,6.44,1.71,8.44,3.9v-3.41h7.41v20.24C154.93,138.2,150.06,142.15,140.35,142.15z      M147.62,119.81c0-3.56-2.78-6.05-6.39-6.05s-6.34,2.49-6.34,6.05v0.1c0,3.61,2.73,6.05,6.34,6.05s6.39-2.49,6.39-6.05V119.81z"
   id="path35"
   style="fill:#000000" />
			<path
   class="st0"
   d="M178.34,134.25v-14.58c0-3.51-1.66-5.32-4.49-5.32c-2.83,0-4.63,1.81-4.63,5.32v14.58h-7.41V108.1h7.41v3.71     c1.71-2.2,3.9-4.2,7.66-4.2c5.61,0,8.88,3.71,8.88,9.71v16.92H178.34z"
   id="path37"
   style="fill:#000000" />
		</g>
		<g
   id="g43"
   style="fill:#000000">
			<path
   class="st0"
   d="M23.55,161.55l22.78-13.66v2.2l-19.07,11.46l19.07,11.41v2.2L23.55,161.55z M73.11,161.55l-22.78,13.61     V147.9L73.11,161.55z"
   id="path41"
   style="fill:#000000" />
		</g>
	</g>
</g>
</svg>
