<?xml version="1.0" encoding="UTF-8" standalone="no"?>
<svg
   xmlns:dc="http://purl.org/dc/elements/1.1/"
   xmlns:cc="http://creativecommons.org/ns#"
   xmlns:rdf="http://www.w3.org/1999/02/22-rdf-syntax-ns#"
   xmlns:svg="http://www.w3.org/2000/svg"
   xmlns="http://www.w3.org/2000/svg"
   xmlns:sodipodi="http://sodipodi.sourceforge.net/DTD/sodipodi-0.dtd"
   xmlns:inkscape="http://www.inkscape.org/namespaces/inkscape"
   width="210mm"
   height="297mm"
   viewBox="0 0 210 297"
   version="1.1"
   id="svg1709"
   inkscape:version="1.0.2 (e86c870879, 2021-01-15)"
   sodipodi:docname="region.svg">
  <defs
     id="defs1703">
    <clipPath
       clipPathUnits="userSpaceOnUse"
       id="clipPath5690">
      <path
         d="M 0,163.913 H 566.929 V 0 H 0 Z"
         id="path5688" />
    </clipPath>
    <clipPath
       clipPathUnits="userSpaceOnUse"
       id="clipPath1624-3">
      <path
         d="M 0,283.465 H 623.622 V 0 H 0 Z"
         id="path1622-6" />
    </clipPath>
  </defs>
  <sodipodi:namedview
     id="base"
     pagecolor="#ffffff"
     bordercolor="#666666"
     borderopacity="1.0"
     inkscape:pageopacity="0.0"
     inkscape:pageshadow="2"
     inkscape:zoom="0.22973744"
     inkscape:cx="400"
     inkscape:cy="560"
     inkscape:document-units="mm"
     inkscape:current-layer="layer1"
     inkscape:document-rotation="0"
     showgrid="false"
     inkscape:window-width="1812"
     inkscape:window-height="752"
     inkscape:window-x="68"
     inkscape:window-y="56"
     inkscape:window-maximized="0" />
  <metadata
     id="metadata1706">
    <rdf:RDF>
      <cc:Work
         rdf:about="">
        <dc:format>image/svg+xml</dc:format>
        <dc:type
           rdf:resource="http://purl.org/dc/dcmitype/StillImage" />
        <dc:title></dc:title>
      </cc:Work>
    </rdf:RDF>
  </metadata>
  <g
     inkscape:label="Calque 1"
     inkscape:groupmode="layer"
     id="layer1">
    <g
       id="g3382"
       transform="matrix(6.4776506,0,0,6.4776506,-543.73695,-2474.3584)"
       style="font-size:19.7556px;line-height:23.0524px;font-family:'Atlas Grotesk';-inkscape-font-specification:'Atlas Grotesk';letter-spacing:0px;word-spacing:0;fill:#000000;stroke-width:0">
      <g
         id="g1614"
         transform="matrix(0.08566372,0,0,-0.08566372,94.538115,385.46235)"
         style="font-size:19.7556px;line-height:23.0524px;font-family:'Atlas Grotesk';-inkscape-font-specification:'Atlas Grotesk';letter-spacing:0px;word-spacing:0;fill:#000000;stroke-width:0">
        <path
           d="m 0,0 h 8.063 v -29.268 h 14.485 v -6.323 H 0 Z"
           style="fill:#000000;fill-opacity:1;fill-rule:nonzero;stroke:none"
           id="path1616" />
      </g>
      <g
         id="g1618"
         style="font-size:19.7556px;line-height:23.0524px;font-family:'Atlas Grotesk';-inkscape-font-specification:'Atlas Grotesk';letter-spacing:0px;word-spacing:0;fill:#000000;stroke-width:0"
         transform="matrix(0.08566372,0,0,-0.08566372,74.985645,400.43469)">
        <g
           id="g1620"
           clip-path="url(#clipPath1624-3)"
           style="fill:#000000">
          <g
             id="g1626"
             transform="translate(271.2683,148.3)"
             style="fill:#000000">
            <path
               d="m 0,0 v 2.19 h -2.786 c -4.183,0 -6.621,-0.896 -6.621,-3.683 0,-1.893 1.144,-3.137 3.782,-3.137 C -2.438,-4.63 0,-2.887 0,0 m -16.476,-1.893 c 0,6.075 5.576,8.365 13.538,8.365 H 0 v 1.045 c 0,3.085 -0.946,4.778 -4.231,4.778 -2.837,0 -4.131,-1.444 -4.429,-3.685 h -6.819 c 0.447,6.174 5.325,8.911 11.697,8.911 6.37,0 10.9,-2.588 10.9,-9.657 V -9.109 H 0.1 v 3.135 c -1.494,-2.09 -3.783,-3.682 -7.866,-3.682 -4.728,0 -8.71,2.29 -8.71,7.763"
               style="fill:#000000;fill-opacity:1;fill-rule:nonzero;stroke:none"
               id="path1628" />
          </g>
          <g
             id="g1630"
             transform="translate(307.9041,158.4045)"
             style="fill:#000000">
            <path
               d="m 0,0 c 4.031,0 6.072,1.691 6.072,5.126 v 0.2 C 6.072,8.96 3.882,10.204 0,10.204 H -4.53 V 0 Z M -12.544,16.376 H 0.198 c 8.412,0 13.74,-3.435 13.74,-10.801 V 5.376 C 13.938,0 10.801,-2.837 6.621,-4.083 l 9.407,-15.132 H 7.466 L -1.046,-5.476 H -4.53 v -13.739 h -8.014 z"
               style="fill:#000000;fill-opacity:1;fill-rule:nonzero;stroke:none"
               id="path1632" />
          </g>
          <g
             id="g1634"
             transform="translate(339.6072,176.6721)"
             style="fill:#000000">
            <path
               d="M 0,0 H 7.566 L 2.389,-7.914 h -5.228 z m 5.873,-21.653 c -0.248,3.933 -2.24,5.824 -5.675,5.824 -3.235,0 -5.424,-2.139 -5.972,-5.824 z m -19.063,-3.135 v 0.397 c 0,8.214 5.824,13.54 13.388,13.54 6.721,0 12.694,-3.933 12.694,-13.241 v -1.99 H -5.874 c 0.199,-4.331 2.538,-6.819 6.471,-6.819 3.335,0 4.978,1.443 5.425,3.633 h 6.82 c -0.847,-5.625 -5.327,-8.761 -12.445,-8.761 -7.863,0 -13.587,4.928 -13.587,13.241"
               style="fill:#000000;fill-opacity:1;fill-rule:nonzero;stroke:none"
               id="path1636" />
          </g>
          <g
             id="g1638"
             transform="translate(376.5759,152.8791)"
             style="fill:#000000">
            <path
               d="m 0,0 v 0.348 c 0,4.43 -2.34,7.118 -6.271,7.118 -4.033,0 -6.273,-2.886 -6.273,-7.168 V -0.1 c 0,-4.331 2.538,-7.018 6.124,-7.018 C -2.638,-7.118 0,-4.431 0,0 m -19.712,-14.235 h 7.168 c 0.447,-2.29 2.091,-3.784 5.774,-3.784 4.381,0 6.571,2.289 6.571,6.372 v 3.931 c -1.443,-2.538 -4.53,-4.828 -8.362,-4.828 -6.322,0 -11.349,4.729 -11.349,12.444 v 0.349 c 0,7.467 4.977,12.692 11.449,12.692 4.23,0 6.77,-1.84 8.262,-4.479 v 3.884 h 7.168 v -23.993 c -0.05,-7.716 -5.178,-11.648 -13.739,-11.648 -8.412,0 -12.244,3.683 -12.942,9.06"
               style="fill:#000000;fill-opacity:1;fill-rule:nonzero;stroke:none"
               id="path1640" />
          </g>
          <path
             d="m 390.633,165.224 h 7.168 v -26.032 h -7.168 z m -0.547,7.466 c 0,2.24 1.791,3.933 4.081,3.933 2.339,0 4.132,-1.693 4.132,-3.933 0,-2.24 -1.793,-3.932 -4.132,-3.932 -2.29,0 -4.081,1.692 -4.081,3.932"
             style="fill:#000000;fill-opacity:1;fill-rule:nonzero;stroke:none"
             id="path1642" />
          <g
             id="g1644"
             transform="translate(423.3757,152.0325)"
             style="fill:#000000">
            <path
               d="m 0,0 v 0.349 c 0,4.978 -2.34,7.964 -6.37,7.964 -3.984,0 -6.373,-2.886 -6.373,-7.865 V 0.05 c 0,-4.977 2.29,-7.964 6.373,-7.964 C -2.34,-7.914 0,-4.927 0,0 m -20.109,-0.099 v 0.398 c 0,8.163 5.923,13.49 13.739,13.49 7.813,0 13.686,-5.227 13.686,-13.341 V 0.05 c 0,-8.213 -5.922,-13.439 -13.736,-13.439 -7.766,0 -13.689,5.176 -13.689,13.29"
               style="fill:#000000;fill-opacity:1;fill-rule:nonzero;stroke:none"
               id="path1646" />
          </g>
          <g
             id="g1648"
             transform="translate(436.1785,165.2239)"
             style="fill:#000000">
            <path
               d="m 0,0 h 7.218 v -4.132 c 1.294,2.589 4.132,4.729 8.463,4.729 5.126,0 8.759,-3.085 8.759,-10.054 v -16.575 h -7.217 v 15.529 c 0,3.534 -1.393,5.226 -4.579,5.226 -3.087,0 -5.426,-1.891 -5.426,-5.723 V -26.032 H 0 Z"
               style="fill:#000000;fill-opacity:1;fill-rule:nonzero;stroke:none"
               id="path1650" />
          </g>
          <g
             id="g1652"
             transform="translate(232.1013,114.7307)"
             style="fill:#000000">
            <path
               d="M 0,0 H 5.651 L 2.826,8.387 Z M 1.617,10.028 H 4.216 L 9.731,-6.268 H 7.771 L 6.176,-1.573 H -0.547 L -2.12,-6.268 h -1.868 z"
               style="fill:#000000;fill-opacity:1;fill-rule:nonzero;stroke:none"
               id="path1654" />
          </g>
          <g
             id="g1656"
             transform="translate(243.28,112.8391)"
             style="fill:#000000">
            <path
               d="M 0,0 V 7.543 H 1.892 V 0.091 c 0,-2.097 0.888,-3.031 2.757,-3.031 1.687,0 3.282,1.117 3.282,3.259 V 7.543 H 9.823 V -4.376 H 7.931 v 1.892 C 7.384,-3.602 6.062,-4.581 4.147,-4.581 1.777,-4.581 0,-3.281 0,0"
               style="fill:#000000;fill-opacity:1;fill-rule:nonzero;stroke:none"
               id="path1658" />
          </g>
          <g
             id="g1660"
             transform="translate(254.8738,120.3831)"
             style="fill:#000000">
            <path
               d="M 0,0 H 2.051 L 5.584,-10.005 9.071,0 H 11.03 L 6.746,-11.921 H 4.33 Z"
               style="fill:#000000;fill-opacity:1;fill-rule:nonzero;stroke:none"
               id="path1662" />
          </g>
          <g
             id="g1664"
             transform="translate(275.4626,115.5745)"
             style="fill:#000000">
            <path
               d="M 0,0 C -0.182,2.461 -1.458,3.44 -3.418,3.44 -5.356,3.44 -6.654,2.119 -6.974,0 Z m -9.003,-1.276 v 0.181 c 0,3.602 2.302,6.109 5.585,6.109 2.758,0 5.355,-1.664 5.355,-5.927 v -0.614 h -8.979 c 0.091,-2.712 1.391,-4.217 3.828,-4.217 1.847,0 2.918,0.683 3.168,2.074 h 1.892 c -0.41,-2.393 -2.393,-3.646 -5.082,-3.646 -3.372,0 -5.767,2.371 -5.767,6.04"
               style="fill:#000000;fill-opacity:1;fill-rule:nonzero;stroke:none"
               id="path1666" />
          </g>
          <g
             id="g1668"
             transform="translate(279.7361,120.3831)"
             style="fill:#000000">
            <path
               d="m 0,0 h 1.892 v -2.143 c 0.752,1.345 1.777,2.28 3.92,2.348 V -1.573 C 3.419,-1.687 1.892,-2.439 1.892,-5.379 v -6.542 H 0 Z"
               style="fill:#000000;fill-opacity:1;fill-rule:nonzero;stroke:none"
               id="path1670" />
          </g>
          <g
             id="g1672"
             transform="translate(295.8923,114.6399)"
             style="fill:#000000">
            <path
               d="m 0,0 v 0.159 c 0,2.667 -1.458,4.216 -3.783,4.216 -2.371,0 -3.784,-1.755 -3.784,-4.262 v -0.182 c 0,-2.598 1.664,-4.148 3.671,-4.148 C -1.687,-4.217 0,-2.667 0,0 m -9.275,-6.861 h 1.936 c 0.274,-1.368 1.413,-2.074 3.443,-2.074 2.346,0 3.828,1.117 3.828,3.669 v 1.733 c -0.683,-1.162 -2.302,-2.256 -4.035,-2.256 -3.122,0 -5.423,2.37 -5.423,5.651 v 0.16 c 0,3.237 2.278,5.926 5.56,5.926 1.984,0 3.215,-0.957 3.898,-2.12 V 5.743 H 1.823 V -5.379 c -0.022,-3.465 -2.37,-5.151 -5.697,-5.151 -3.532,0 -5.083,1.664 -5.401,3.669"
               style="fill:#000000;fill-opacity:1;fill-rule:nonzero;stroke:none"
               id="path1674" />
          </g>
          <g
             id="g1676"
             transform="translate(300.7537,120.3831)"
             style="fill:#000000">
            <path
               d="m 0,0 h 1.892 v -1.892 c 0.546,1.117 1.868,2.097 3.829,2.097 2.461,0 4.193,-1.345 4.193,-4.809 v -7.317 H 8.022 v 7.454 c 0,2.097 -0.888,3.031 -2.802,3.031 -1.755,0 -3.328,-1.117 -3.328,-3.259 v -7.226 H 0 Z"
               style="fill:#000000;fill-opacity:1;fill-rule:nonzero;stroke:none"
               id="path1678" />
          </g>
          <g
             id="g1680"
             transform="translate(321.8943,115.5745)"
             style="fill:#000000">
            <path
               d="M 0,0 C -0.182,2.461 -1.458,3.44 -3.418,3.44 -5.356,3.44 -6.655,2.119 -6.974,0 Z m -9.003,-1.276 v 0.181 c 0,3.602 2.302,6.109 5.585,6.109 2.758,0 5.355,-1.664 5.355,-5.927 v -0.614 h -8.979 c 0.091,-2.712 1.391,-4.217 3.829,-4.217 1.846,0 2.916,0.683 3.167,2.074 h 1.892 c -0.41,-2.393 -2.393,-3.646 -5.082,-3.646 -3.372,0 -5.767,2.371 -5.767,6.04"
               style="fill:#000000;fill-opacity:1;fill-rule:nonzero;stroke:none"
               id="path1682" />
          </g>
          <path
             d="m 326.103,115.619 h 4.878 v -1.777 h -4.878 z"
             style="fill:#000000;fill-opacity:1;fill-rule:nonzero;stroke:none"
             id="path1684" />
          <g
             id="g1686"
             transform="translate(339.2615,117.1233)"
             style="fill:#000000">
            <path
               d="M 0,0 C 2.324,0 3.577,1.004 3.577,3.009 V 3.1 C 3.577,5.311 2.21,6.04 0,6.04 H -3.055 V 0 Z m -5.038,7.635 h 4.9 C 2.985,7.635 5.561,6.358 5.561,3.1 V 3.009 c 0,-2.69 -1.801,-4.012 -4.035,-4.445 L 6.518,-8.66 H 4.307 l -4.855,7.088 H -3.055 V -8.66 h -1.983 z"
               style="fill:#000000;fill-opacity:1;fill-rule:nonzero;stroke:none"
               id="path1688" />
          </g>
          <g
             id="g1690"
             transform="translate(347.7166,126.0803)"
             style="fill:#000000">
            <path
               d="m 0,0 h 1.892 v -7.589 c 0.546,1.116 1.868,2.097 3.828,2.097 2.462,0 4.193,-1.345 4.193,-4.809 v -7.315 H 8.021 v 7.452 c 0,2.097 -0.888,3.031 -2.802,3.031 -1.755,0 -3.327,-1.117 -3.327,-3.26 v -7.223 H 0 Z"
               style="fill:#000000;fill-opacity:1;fill-rule:nonzero;stroke:none"
               id="path1692" />
          </g>
          <g
             id="g1694"
             transform="translate(364.825,125.7161)"
             style="fill:#000000">
            <path
               d="M 0,0 H 1.71 L 4.147,-3.281 H 2.758 L 0.82,-1.573 -1.116,-3.281 h -1.345 z m 4.741,-11.396 v 0.16 c 0,2.757 -1.528,4.535 -3.897,4.535 -2.394,0 -3.899,-1.778 -3.899,-4.513 v -0.182 c 0,-2.711 1.483,-4.49 3.899,-4.49 2.392,0 3.897,1.801 3.897,4.49 m -9.755,0 v 0.182 c 0,3.579 2.485,6.086 5.858,6.086 3.373,0 5.857,-2.484 5.857,-6.062 v -0.183 c 0,-3.601 -2.484,-6.085 -5.881,-6.085 -3.395,0 -5.834,2.575 -5.834,6.062"
               style="fill:#000000;fill-opacity:1;fill-rule:nonzero;stroke:none"
               id="path1696" />
          </g>
          <g
             id="g1698"
             transform="translate(373.8435,120.3831)"
             style="fill:#000000">
            <path
               d="m 0,0 h 1.892 v -1.892 c 0.546,1.117 1.868,2.097 3.828,2.097 2.462,0 4.194,-1.345 4.194,-4.809 v -7.317 H 8.021 v 7.454 c 0,2.097 -0.887,3.031 -2.802,3.031 -1.754,0 -3.327,-1.117 -3.327,-3.259 v -7.226 H 0 Z"
               style="fill:#000000;fill-opacity:1;fill-rule:nonzero;stroke:none"
               id="path1700" />
          </g>
          <g
             id="g1702"
             transform="translate(394.9841,115.5745)"
             style="fill:#000000">
            <path
               d="M 0,0 C -0.182,2.461 -1.458,3.44 -3.419,3.44 -5.356,3.44 -6.655,2.119 -6.974,0 Z m -9.003,-1.276 v 0.181 c 0,3.602 2.302,6.109 5.584,6.109 2.758,0 5.356,-1.664 5.356,-5.927 v -0.614 h -8.98 c 0.092,-2.712 1.391,-4.217 3.829,-4.217 1.847,0 2.917,0.683 3.168,2.074 h 1.892 c -0.41,-2.393 -2.393,-3.646 -5.082,-3.646 -3.373,0 -5.767,2.371 -5.767,6.04"
               style="fill:#000000;fill-opacity:1;fill-rule:nonzero;stroke:none"
               id="path1704" />
          </g>
          <path
             d="m 399.193,115.619 h 4.878 v -1.777 h -4.878 z"
             style="fill:#000000;fill-opacity:1;fill-rule:nonzero;stroke:none"
             id="path1706" />
          <g
             id="g1708"
             transform="translate(409.5427,114.7307)"
             style="fill:#000000">
            <path
               d="M 0,0 H 5.651 L 2.826,8.387 Z M 1.618,10.028 H 4.216 L 9.731,-6.268 H 7.771 L 6.177,-1.573 H -0.547 L -2.12,-6.268 h -1.868 z"
               style="fill:#000000;fill-opacity:1;fill-rule:nonzero;stroke:none"
               id="path1710" />
          </g>
          <path
             d="m 421.282,126.081 h 1.914 v -17.617 h -1.914 z"
             style="fill:#000000;fill-opacity:1;fill-rule:nonzero;stroke:none"
             id="path1712" />
          <g
             id="g1714"
             transform="translate(435.6199,114.3206)"
             style="fill:#000000">
            <path
               d="M 0,0 V 0.182 C 0,3.19 -1.663,4.694 -3.669,4.694 -5.88,4.694 -7.567,3.236 -7.567,0.182 V 0 c 0,-3.055 1.596,-4.49 3.921,-4.49 C -1.276,-4.49 0,-2.896 0,0 m -9.391,6.062 h 1.893 V 4.057 c 0.684,1.162 2.302,2.211 4.034,2.211 3.122,0 5.425,-2.28 5.425,-5.996 V 0.091 c 0,-3.647 -2.143,-6.154 -5.425,-6.154 -1.961,0 -3.35,0.981 -4.034,2.166 v -6.108 h -1.893 z"
               style="fill:#000000;fill-opacity:1;fill-rule:nonzero;stroke:none"
               id="path1716" />
          </g>
          <g
             id="g1718"
             transform="translate(448.1707,115.5745)"
             style="fill:#000000">
            <path
               d="M 0,0 C -0.182,2.461 -1.458,3.44 -3.418,3.44 -5.356,3.44 -6.654,2.119 -6.974,0 Z m -9.003,-1.276 v 0.181 c 0,3.602 2.302,6.109 5.585,6.109 2.758,0 5.355,-1.664 5.355,-5.927 v -0.614 h -8.979 c 0.091,-2.712 1.391,-4.217 3.829,-4.217 1.846,0 2.916,0.683 3.167,2.074 h 1.892 c -0.41,-2.393 -2.393,-3.646 -5.082,-3.646 -3.372,0 -5.767,2.371 -5.767,6.04"
               style="fill:#000000;fill-opacity:1;fill-rule:nonzero;stroke:none"
               id="path1720" />
          </g>
          <g
             id="g1722"
             transform="translate(451.571,112.1321)"
             style="fill:#000000">
            <path
               d="m 0,0 h 1.846 c 0.136,-1.413 0.888,-2.302 2.803,-2.302 1.8,0 2.599,0.616 2.599,1.893 0,1.253 -0.935,1.663 -2.781,2.005 -3.1,0.569 -4.148,1.435 -4.148,3.509 0,2.211 2.165,3.351 4.035,3.351 2.141,0 3.987,-0.866 4.306,-3.442 H 6.837 C 6.564,6.313 5.835,6.884 4.331,6.884 2.963,6.884 2.074,6.199 2.074,5.174 2.074,4.103 2.667,3.669 4.854,3.282 7.315,2.827 9.048,2.279 9.048,-0.25 9.048,-2.415 7.567,-3.874 4.672,-3.874 1.823,-3.874 0.113,-2.438 0,0"
               style="fill:#000000;fill-opacity:1;fill-rule:nonzero;stroke:none"
               id="path1724" />
          </g>
          <path
             d="m 199.716,128.283 h -33.465 v 3.662 h 33.465 z m -40.049,0 -3.161,1.849 8.453,14.469 0.134,0.23 h 0.001 3.218 0.043 c 1.874,-1.988 4.532,-3.229 7.481,-3.229 3.16,0 5.985,1.425 7.872,3.668 l 2.708,-2.453 c -2.555,-2.98 -6.348,-4.868 -10.58,-4.868 -3.311,0 -6.351,1.158 -8.741,3.088 l -1.305,-2.241 0.015,-0.002 z m 21.367,32.579 h 3.171 l 13.585,-23.307 -3.169,-1.835 -12.006,20.581 -5.902,-10.135 -3.164,1.843 z m -1.952,13.983 c -18.326,0 -33.181,-14.855 -33.181,-33.18 0,-18.325 14.855,-33.18 33.181,-33.18 18.325,0 33.179,14.855 33.179,33.18 0,18.325 -14.854,33.18 -33.179,33.18"
             style="fill:#000000;fill-opacity:1;fill-rule:nonzero;stroke:none"
             id="path1726" />
        </g>
      </g>
    </g>
  </g>
</svg>
