<?xml version="1.0" encoding="UTF-8" standalone="no"?>
<svg
   xmlns:dc="http://purl.org/dc/elements/1.1/"
   xmlns:cc="http://creativecommons.org/ns#"
   xmlns:rdf="http://www.w3.org/1999/02/22-rdf-syntax-ns#"
   xmlns:svg="http://www.w3.org/2000/svg"
   xmlns="http://www.w3.org/2000/svg"
   xmlns:sodipodi="http://sodipodi.sourceforge.net/DTD/sodipodi-0.dtd"
   xmlns:inkscape="http://www.inkscape.org/namespaces/inkscape"
   width="210mm"
   height="297mm"
   viewBox="0 0 210 297"
   version="1.1"
   id="svg1709"
   inkscape:version="1.0.2 (e86c870879, 2021-01-15)"
   sodipodi:docname="saintetienne.svg">
  <defs
     id="defs1703">
    <clipPath
       clipPathUnits="userSpaceOnUse"
       id="clipPath5690">
      <path
         d="M 0,163.913 H 566.929 V 0 H 0 Z"
         id="path5688" />
    </clipPath>
  </defs>
  <sodipodi:namedview
     id="base"
     pagecolor="#ffffff"
     bordercolor="#666666"
     borderopacity="1.0"
     inkscape:pageopacity="0.0"
     inkscape:pageshadow="2"
     inkscape:zoom="0.22973744"
     inkscape:cx="400"
     inkscape:cy="560"
     inkscape:document-units="mm"
     inkscape:current-layer="layer1"
     inkscape:document-rotation="0"
     showgrid="false"
     inkscape:window-width="1812"
     inkscape:window-height="752"
     inkscape:window-x="68"
     inkscape:window-y="56"
     inkscape:window-maximized="0" />
  <metadata
     id="metadata1706">
    <rdf:RDF>
      <cc:Work
         rdf:about="">
        <dc:format>image/svg+xml</dc:format>
        <dc:type
           rdf:resource="http://purl.org/dc/dcmitype/StillImage" />
        <dc:title></dc:title>
      </cc:Work>
    </rdf:RDF>
  </metadata>
  <g
     inkscape:label="Calque 1"
     inkscape:groupmode="layer"
     id="layer1">
    <g
       id="g6402"
       transform="matrix(6.1256271,0,0,6.1256271,-425.25916,-2444.2785)"
       style="font-size:19.7556px;line-height:23.0524px;font-family:'Atlas Grotesk';-inkscape-font-specification:'Atlas Grotesk';letter-spacing:0px;word-spacing:0;fill:#000000;stroke-width:0">
      <g
         id="g5674"
         transform="matrix(0.04909103,0,0,-0.04909103,80.717757,407.7914)"
         style="fill:#000000">
        <path
           d="M 0,0 H 4.803 L 12.875,-25.212 21.032,0 h 4.844 l -9.564,-29.808 h -6.75 z"
           style="fill:#000000;fill-opacity:1;fill-rule:nonzero;stroke:none"
           id="path5676" />
      </g>
      <path
         d="M 82.349724,407.98851 H 82.120076 V 407.773 h 0.229648 z m 0,1.26615 h -0.229648 v -1.09743 h 0.229648 z"
         style="fill:#000000;fill-opacity:1;fill-rule:nonzero;stroke:none;stroke-width:0"
         id="path5678" />
      <path
         d="m 82.65453,407.76092 h 0.229648 v 1.49379 H 82.65453 Z"
         style="fill:#000000;fill-opacity:1;fill-rule:nonzero;stroke:none;stroke-width:0"
         id="path5680" />
      <path
         d="m 83.16866,407.76092 h 0.229746 v 1.49379 H 83.16866 Z"
         style="fill:#000000;fill-opacity:1;fill-rule:nonzero;stroke:none;stroke-width:0"
         id="path5682" />
      <g
         id="g5684"
         style="fill:#000000"
         transform="matrix(0.04909103,0,0,-0.04909103,72.591852,409.77095)">
        <g
           id="g5686"
           clip-path="url(#clipPath5690)"
           style="fill:#000000">
          <g
             id="g5692"
             transform="translate(231.0605,16.4364)"
             style="fill:#000000">
            <path
               d="m 0,0 c 1.076,-1.408 2.816,-2.152 4.677,-2.152 1.864,0 3.562,0.744 4.638,2.152 0.249,0.33 0.372,0.62 0.539,0.911 L 14.49,-1.076 C 14.118,-1.738 13.705,-2.36 13.208,-2.939 11.095,-5.382 7.907,-6.666 4.677,-6.541 c -3.269,0.123 -6.374,1.241 -8.402,3.683 -1.905,2.361 -2.693,5.218 -2.65,8.116 0.082,3.021 0.784,5.838 2.65,8.114 2.028,2.442 5.133,3.686 8.402,3.686 3.272,0 6.337,-1.202 8.365,-3.686 1.862,-2.276 2.649,-5.175 2.649,-8.114 0,-0.413 -0.042,-0.869 -0.083,-1.282 H -1.367 C -1.202,2.525 -0.83,1.076 0,0 M 0,10.517 C -0.621,9.729 -0.993,8.736 -1.202,7.7 H 10.517 C 10.308,8.736 9.936,9.729 9.315,10.517 8.239,11.965 6.541,12.71 4.677,12.669 2.816,12.71 1.076,11.965 0,10.517"
               style="fill:#000000;fill-opacity:1;fill-rule:nonzero;stroke:none"
               id="path5694" />
          </g>
          <g
             id="g5696"
             transform="translate(275.0263,26.0009)"
             style="fill:#000000">
            <path
               d="M 0,0 C -0.165,0.33 -0.372,0.662 -0.579,0.952 -1.657,2.4 -3.395,3.146 -5.258,3.104 -7.12,3.146 -8.86,2.4 -9.896,0.952 c -1.074,-1.408 -1.408,-3.354 -1.448,-5.258 0.04,-1.905 0.374,-3.85 1.448,-5.258 1.036,-1.409 2.776,-2.113 4.638,-2.113 1.863,0 3.601,0.704 4.679,2.113 0.207,0.29 0.372,0.579 0.537,0.911 l 4.39,-1.904 C 3.974,-11.18 3.602,-11.8 3.104,-12.379 c -1.986,-2.443 -5.132,-3.768 -8.362,-3.684 -3.228,-0.084 -6.335,1.199 -8.363,3.684 -1.864,2.275 -2.65,5.134 -2.65,8.073 0,2.981 0.786,5.795 2.65,8.115 2.112,2.525 5.175,3.684 8.363,3.684 3.271,0 6.334,-1.242 8.362,-3.684 C 3.602,3.186 4.017,2.565 4.348,1.903 Z"
               style="fill:#000000;fill-opacity:1;fill-rule:nonzero;stroke:none"
               id="path5698" />
          </g>
          <g
             id="g5700"
             transform="translate(297.9193,32.914)"
             style="fill:#000000">
            <path
               d="m 0,0 v -4.348 c -1.078,0.416 -2.442,0.621 -3.892,0.539 -1.697,-0.083 -3.021,-0.662 -3.89,-1.573 -1.41,-1.408 -1.74,-3.311 -1.74,-5.588 V -22.397 H -14.2 v 22.355 h 4.138 V -3.23 c 0.54,0.912 1.244,1.699 2.195,2.361 1.284,0.951 2.857,1.366 4.388,1.408 C -2.318,0.621 -1.159,0.414 0,0"
               style="fill:#000000;fill-opacity:1;fill-rule:nonzero;stroke:none"
               id="path5702" />
          </g>
          <g
             id="g5704"
             transform="translate(306.9838,16.4364)"
             style="fill:#000000">
            <path
               d="m 0,0 c 1.076,-1.408 2.816,-2.152 4.678,-2.152 1.865,0 3.56,0.744 4.637,2.152 0.249,0.33 0.373,0.62 0.539,0.911 l 4.636,-1.987 c -0.372,-0.662 -0.785,-1.284 -1.282,-1.863 -2.112,-2.443 -5.301,-3.727 -8.53,-3.602 -3.27,0.123 -6.374,1.241 -8.403,3.683 -1.905,2.361 -2.693,5.218 -2.651,8.116 0.084,3.021 0.788,5.838 2.651,8.114 2.029,2.442 5.133,3.686 8.403,3.686 3.271,0 6.336,-1.202 8.365,-3.686 1.861,-2.276 2.648,-5.175 2.648,-8.114 0,-0.413 -0.041,-0.869 -0.083,-1.282 H -1.364 C -1.201,2.525 -0.827,1.076 0,0 m -0.123,19.128 -1.241,3.436 10.803,3.974 1.202,-3.436 z M 0,10.517 C -0.62,9.729 -0.994,8.736 -1.201,7.7 H 10.517 C 10.309,8.736 9.937,9.729 9.315,10.517 8.238,11.965 6.543,12.71 4.678,12.669 2.816,12.71 1.076,11.965 0,10.517"
               style="fill:#000000;fill-opacity:1;fill-rule:nonzero;stroke:none"
               id="path5706" />
          </g>
          <g
             id="g5708"
             transform="translate(326.3588,28.7323)"
             style="fill:#000000">
            <path
               d="m 0,0 c 0.167,0.207 0.332,0.539 0.538,0.788 1.987,2.733 5.01,3.932 8.528,3.932 4.099,0 7.453,-1.408 9.193,-4.638 0.745,-1.408 1.034,-2.939 1.034,-4.263 v -14.036 h -4.098 v 4.099 c -0.58,-1.408 -2.03,-2.691 -3.271,-3.354 -1.656,-0.952 -3.602,-1.366 -5.425,-1.324 -2.233,0.042 -4.513,1.159 -5.712,2.733 -1.036,1.49 -1.573,2.649 -1.573,4.429 0,2.361 1.366,4.596 3.476,5.837 2.445,1.326 4.515,1.449 7.827,1.947 l 4.016,0.58 c -0.208,1.075 -0.829,2.029 -1.74,2.65 -1.036,0.744 -2.4,1.034 -3.809,0.992 -1.698,0 -3.229,-0.497 -4.223,-1.738 C 4.596,-1.573 4.389,-1.821 4.266,-2.028 Z M 9.978,-7.907 C 7.038,-8.404 3.934,-8.943 3.85,-11.344 3.81,-13 5.258,-14.49 7.328,-14.532 c 2.61,-0.041 5.837,1.325 6.79,4.14 0.539,1.284 0.539,2.402 0.539,3.312 -0.83,-0.125 -2.237,-0.372 -4.679,-0.827"
               style="fill:#000000;fill-opacity:1;fill-rule:nonzero;stroke:none"
               id="path5710" />
          </g>
          <g
             id="g5712"
             transform="translate(357.9877,29.1874)"
             style="fill:#000000">
            <path
               d="m 0,0 v -9.398 c 0,-1.781 0,-3.022 0.539,-3.851 0.497,-0.869 1.448,-1.406 2.4,-1.49 1.119,-0.123 2.487,-0.081 3.686,0.126 v -4.058 c -1.657,-0.457 -4.306,-0.539 -5.879,-0.167 -2.029,0.539 -3.56,1.492 -4.43,3.147 -0.871,1.698 -0.952,3.685 -0.952,6.003 V 0 h -4.802 v 3.686 h 4.802 v 6.21 H 0 V 3.686 H 6.625 V 0 Z"
               style="fill:#000000;fill-opacity:1;fill-rule:nonzero;stroke:none"
               id="path5714" />
          </g>
          <path
             d="m 374.67,36.309 h -4.678 v 4.39 h 4.678 z m 0,-25.792 h -4.678 v 22.355 h 4.678 z"
             style="fill:#000000;fill-opacity:1;fill-rule:nonzero;stroke:none"
             id="path5716" />
          <g
             id="g5718"
             transform="translate(399.4701,32.873)"
             style="fill:#000000">
            <path
               d="m 0,0 -8.158,-22.356 h -4.678 L -20.95,0 h 4.679 L -10.476,-16.561 -4.68,0 Z"
               style="fill:#000000;fill-opacity:1;fill-rule:nonzero;stroke:none"
               id="path5720" />
          </g>
          <g
             id="g5722"
             transform="translate(407.7895,16.4364)"
             style="fill:#000000">
            <path
               d="m 0,0 c 1.078,-1.408 2.816,-2.152 4.678,-2.152 1.865,0 3.561,0.744 4.637,2.152 0.249,0.33 0.373,0.62 0.539,0.911 l 4.636,-1.987 c -0.372,-0.662 -0.785,-1.284 -1.283,-1.863 -2.111,-2.443 -5.3,-3.727 -8.529,-3.602 -3.27,0.123 -6.374,1.241 -8.404,3.683 -1.904,2.361 -2.692,5.218 -2.648,8.116 0.081,3.021 0.783,5.838 2.648,8.114 2.03,2.442 5.134,3.686 8.404,3.686 3.271,0 6.336,-1.202 8.364,-3.686 1.862,-2.276 2.649,-5.175 2.649,-8.114 0,-0.413 -0.042,-0.869 -0.083,-1.282 H -1.366 C -1.201,2.525 -0.829,1.076 0,0 M 0,10.517 C -0.62,9.729 -0.992,8.736 -1.201,7.7 H 10.517 C 10.31,8.736 9.936,9.729 9.315,10.517 8.239,11.965 6.543,12.71 4.678,12.669 2.816,12.71 1.078,11.965 0,10.517"
               style="fill:#000000;fill-opacity:1;fill-rule:nonzero;stroke:none"
               id="path5724" />
          </g>
          <g
             id="g5726"
             transform="translate(456.8061,40.3242)"
             style="fill:#000000">
            <path
               d="m 0,0 v -29.808 h -4.099 v 1.904 c -1.78,-1.655 -4.221,-2.524 -6.955,-2.524 -2.98,0 -5.879,1.282 -7.7,3.602 -1.905,2.316 -2.567,5.217 -2.567,8.195 0,3.024 0.787,6.005 2.567,8.24 1.863,2.319 4.761,3.56 7.824,3.56 2.319,0 4.554,-0.744 6.252,-2.07 V 0 Z m -4.099,-18.631 c 0,2.194 -0.497,4.308 -1.696,5.714 -1.036,1.285 -2.651,1.905 -4.431,1.905 -1.987,0 -3.683,-0.662 -4.761,-2.235 -0.951,-1.324 -1.409,-3.314 -1.409,-5.384 0,-2.068 0.375,-4.015 1.328,-5.34 1.075,-1.573 2.897,-2.277 4.718,-2.277 1.823,0 3.479,0.663 4.555,1.947 1.199,1.364 1.696,3.519 1.696,5.67"
               style="fill:#000000;fill-opacity:1;fill-rule:nonzero;stroke:none"
               id="path5728" />
          </g>
          <g
             id="g5730"
             transform="translate(467.7748,16.4364)"
             style="fill:#000000">
            <path
               d="m 0,0 c 1.078,-1.408 2.816,-2.152 4.678,-2.152 1.864,0 3.562,0.744 4.637,2.152 0.249,0.33 0.373,0.62 0.539,0.911 l 4.638,-1.987 c -0.373,-0.662 -0.787,-1.284 -1.284,-1.863 -2.112,-2.443 -5.3,-3.727 -8.53,-3.602 -3.27,0.123 -6.374,1.241 -8.403,3.683 -1.905,2.361 -2.692,5.218 -2.649,8.116 0.082,3.021 0.786,5.838 2.649,8.114 2.029,2.442 5.133,3.686 8.403,3.686 3.271,0 6.337,-1.202 8.365,-3.686 1.861,-2.276 2.65,-5.175 2.65,-8.114 0,-0.413 -0.043,-0.869 -0.085,-1.282 H -1.364 C -1.201,2.525 -0.827,1.076 0,0 M 0,10.517 C -0.62,9.729 -0.992,8.736 -1.201,7.7 H 10.517 C 10.311,8.736 9.937,9.729 9.315,10.517 8.24,11.965 6.542,12.71 4.678,12.669 2.816,12.71 1.078,11.965 0,10.517"
               style="fill:#000000;fill-opacity:1;fill-rule:nonzero;stroke:none"
               id="path5732" />
          </g>
          <g
             id="g5734"
             transform="translate(500.3988,25.8759)"
             style="fill:#000000">
            <path
               d="m 0,0 c -0.33,1.036 -1.201,2.07 -2.193,2.567 -0.788,0.414 -1.741,0.662 -2.775,0.662 -1.076,0 -2.068,-0.207 -2.816,-0.58 C -8.57,2.195 -8.9,1.615 -8.9,1.078 c 0,-0.416 0.124,-0.746 0.33,-0.997 0.456,-0.495 1.285,-0.869 2.566,-1.24 1.119,-0.331 2.485,-0.663 3.85,-1.034 1.782,-0.539 2.983,-0.87 4.389,-2.03 1.741,-1.408 2.652,-3.187 2.485,-5.341 -0.165,-2.029 -1.325,-3.809 -3.064,-4.926 -1.779,-1.16 -3.973,-1.49 -6.211,-1.49 -3.02,0 -5.67,0.828 -7.658,2.939 -1.118,1.283 -2.196,3.602 -2.359,4.927 l 4.47,1.076 c 0.04,-0.911 0.498,-2.235 1.242,-2.982 1.118,-1.241 2.691,-1.531 4.265,-1.531 1.241,0 2.899,0.248 3.684,0.869 0.581,0.455 0.788,0.911 0.911,1.532 0,0.58 -0.165,1.078 -0.621,1.531 -0.622,0.581 -1.572,0.911 -2.733,1.245 -1.159,0.33 -2.358,0.62 -3.726,0.992 -1.861,0.497 -3.187,0.992 -4.388,1.987 -1.491,1.118 -2.193,2.856 -2.193,4.389 0,2.608 1.696,4.762 3.932,5.754 1.698,0.745 3.313,0.911 4.844,0.869 1.531,0 3.23,-0.33 4.72,-1.118 2.193,-1.076 3.932,-3.104 4.72,-5.382 z"
               style="fill:#000000;fill-opacity:1;fill-rule:nonzero;stroke:none"
               id="path5736" />
          </g>
          <path
             d="m 514.556,36.309 h -4.677 v 4.39 h 4.677 z m 0,-25.792 h -4.677 v 22.355 h 4.677 z"
             style="fill:#000000;fill-opacity:1;fill-rule:nonzero;stroke:none"
             id="path5738" />
          <g
             id="g5740"
             transform="translate(540.8461,32.873)"
             style="fill:#000000">
            <path
               d="m 0,0 v -23.186 c 0,-3.601 -1.201,-6.209 -3.892,-7.907 -2.235,-1.406 -4.47,-1.78 -6.583,-1.78 -1.863,0 -4.015,0.579 -5.465,1.656 -1.325,0.702 -2.607,1.822 -3.395,3.189 l 4.306,2.07 c 0.29,-0.497 0.621,-0.871 1.078,-1.243 0.911,-0.869 2.358,-1.282 3.518,-1.282 1.532,0 3.105,0.455 4.141,1.282 1.282,0.994 1.654,2.112 1.614,4.057 v 2.196 c -1.74,-1.368 -3.933,-2.031 -6.376,-2.031 -2.981,0 -5.879,1.283 -7.7,3.602 -1.905,2.319 -2.567,5.219 -2.567,8.197 0,3.024 0.785,6.005 2.567,8.241 1.863,2.318 4.761,3.559 7.823,3.559 2.61,0 5.052,-0.95 6.832,-2.567 V 0 Z m -5.797,-16.85 c 1.201,1.365 1.698,3.519 1.698,5.67 0,2.195 -0.497,4.308 -1.698,5.714 -1.034,1.285 -2.649,1.905 -4.43,1.905 -1.986,0 -3.684,-0.662 -4.76,-2.237 -0.953,-1.322 -1.409,-3.311 -1.409,-5.382 0,-2.07 0.375,-4.014 1.327,-5.34 1.076,-1.573 2.898,-2.276 4.719,-2.276 1.822,0 3.477,0.662 4.553,1.946"
               style="fill:#000000;fill-opacity:1;fill-rule:nonzero;stroke:none"
               id="path5742" />
          </g>
          <g
             id="g5744"
             transform="translate(566.9261,21.6122)"
             style="fill:#000000">
            <path
               d="M 0,0 V -11.096 H -4.719 V 0 c 0,2.523 -0.33,4.761 -1.905,6.127 -0.911,0.827 -2.235,1.243 -3.809,1.201 -1.201,-0.044 -2.235,-0.415 -3.104,-1.078 -0.911,-0.745 -1.531,-1.905 -1.78,-3.228 -0.248,-1.159 -0.29,-2.774 -0.29,-4.347 v -9.771 h -4.678 V 11.26 h 4.139 V 9.354 l 0.123,0.126 c 1.74,1.532 4.059,2.277 6.169,2.361 2.319,0.123 4.844,-0.704 6.625,-2.195 C -0.415,7.203 0.042,3.974 0,0"
               style="fill:#000000;fill-opacity:1;fill-rule:nonzero;stroke:none"
               id="path5746" />
          </g>
          <g
             id="g5748"
             transform="translate(44.2909,102.0341)"
             style="fill:#000000">
            <path
               d="m 0,0 c -1.744,3.974 -3.684,6.978 -7.268,9.11 -2.522,1.551 -5.816,2.714 -9.209,2.714 -3.488,0 -6.784,-0.679 -9.206,-2.133 -2.81,-1.55 -4.362,-4.36 -4.362,-7.074 0,-1.744 0.679,-3.294 1.842,-4.554 1.551,-1.647 5.038,-3.006 8.625,-4.073 l 12.31,-3.584 c 5.718,-1.648 9.497,-3.587 12.695,-6.591 3.974,-3.78 6.201,-8.723 6.201,-14.151 0,-6.008 -3.391,-12.211 -8.624,-15.7 -5.137,-3.585 -11.532,-4.553 -18.608,-4.553 -9.206,0 -17.155,2.615 -22.679,9.497 -3.197,4.071 -4.942,8.819 -6.008,13.277 l 11.048,3.003 c 0.68,-3.584 1.841,-6.878 3.78,-9.207 3.101,-4.458 8.915,-6.298 14.246,-6.298 4.072,0 9.013,1.066 11.824,3.198 2.617,1.938 3.49,4.652 3.49,7.076 0,2.228 -0.873,4.36 -2.617,5.911 -1.841,1.745 -4.167,2.907 -7.27,3.78 l -12.889,3.78 c -5.04,1.453 -9.693,3.294 -13.181,6.397 -3.877,3.391 -5.62,8.431 -5.62,13.082 0,7.173 4.65,13.57 10.757,16.379 4.847,2.326 9.691,2.812 14.345,2.812 4.844,-0.097 10.078,-0.97 14.537,-3.49 C 3.974,15.411 8.431,9.887 11.048,3.004 Z"
               style="fill:#000000;fill-opacity:1;fill-rule:nonzero;stroke:none"
               id="path5750" />
          </g>
          <g
             id="g5752"
             transform="translate(64.4662,97.0502)"
             style="fill:#000000">
            <path
               d="m 0,0 c 0.387,0.484 0.776,1.26 1.26,1.841 4.653,6.397 11.727,9.207 19.965,9.207 9.594,0 17.445,-3.294 21.516,-10.855 1.745,-3.294 2.423,-6.88 2.423,-9.981 v -32.856 h -9.595 v 9.595 c -1.357,-3.294 -4.75,-6.3 -7.656,-7.851 -3.877,-2.229 -8.432,-3.197 -12.696,-3.1 -5.234,0.096 -10.564,2.713 -13.374,6.396 -2.424,3.488 -3.684,6.202 -3.684,10.371 0,5.524 3.198,10.756 8.141,13.665 5.718,3.101 10.564,3.391 18.318,4.554 l 9.401,1.357 c -0.486,2.52 -1.939,4.75 -4.072,6.203 -2.422,1.745 -5.619,2.424 -8.915,2.327 -3.974,0 -7.561,-1.164 -9.887,-4.072 -0.387,-0.485 -0.871,-1.065 -1.162,-1.551 z m 23.358,-18.511 c -6.881,-1.163 -14.15,-2.424 -14.344,-8.044 -0.097,-3.877 3.296,-7.365 8.141,-7.464 6.106,-0.097 13.664,3.102 15.894,9.691 1.26,3.006 1.26,5.623 1.26,7.756 -1.937,-0.293 -5.233,-0.873 -10.951,-1.939"
               style="fill:#000000;fill-opacity:1;fill-rule:nonzero;stroke:none"
               id="path5754" />
          </g>
          <path
             d="m 128.434,114.786 h -10.143 v 10.274 h 10.143 z m 0,-60.379 h -10.143 v 52.334 h 10.143 z"
             style="fill:#000000;fill-opacity:1;fill-rule:nonzero;stroke:none"
             id="path5756" />
          <g
             id="g5758"
             transform="translate(184.4013,80.3798)"
             style="fill:#000000">
            <path
               d="M 0,0 V -25.973 H -11.05 V 0 c 0,5.913 -0.774,11.145 -4.457,14.344 -2.132,1.94 -5.234,2.907 -8.915,2.811 -2.813,-0.097 -5.234,-0.97 -7.27,-2.52 -2.133,-1.744 -3.587,-4.458 -4.167,-7.56 -0.581,-2.714 -0.68,-6.492 -0.68,-10.176 V -25.973 H -47.49 v 52.335 h 9.691 v -4.459 l 0.292,0.292 c 4.071,3.586 9.498,5.33 14.441,5.524 5.427,0.29 11.338,-1.647 15.506,-5.137 C -0.97,16.864 0.097,9.304 0,0"
               style="fill:#000000;fill-opacity:1;fill-rule:nonzero;stroke:none"
               id="path5760" />
          </g>
          <g
             id="g5762"
             transform="translate(206.5624,98.1161)"
             style="fill:#000000">
            <path
               d="m 0,0 v -22.001 c 0,-4.165 0,-7.074 1.26,-9.014 1.163,-2.034 3.393,-3.295 5.621,-3.488 2.617,-0.292 5.816,-0.193 8.626,0.291 v -9.498 c -3.877,-1.064 -10.08,-1.26 -13.763,-0.387 -4.748,1.26 -8.335,3.488 -10.369,7.365 -2.036,3.975 -2.229,8.627 -2.229,14.053 V 0 h -8.411 v 10.069 h 8.411 V 23.163 L 0,28.343 V 8.625 Z"
               style="fill:#000000;fill-opacity:1;fill-rule:nonzero;stroke:none"
               id="path5764" />
          </g>
          <g
             id="g5766"
             transform="translate(359.3266,68.2646)"
             style="fill:#000000">
            <path
               d="m 0,0 c 2.519,-3.294 6.591,-5.038 10.951,-5.038 4.361,0 8.334,1.744 10.855,5.038 0.581,0.776 0.873,1.454 1.259,2.134 L 33.92,-2.518 c -0.871,-1.552 -1.841,-3.005 -3.004,-4.363 -4.941,-5.717 -12.404,-8.723 -19.965,-8.431 -7.657,0.291 -14.927,2.908 -19.675,8.627 -4.459,5.522 -6.299,12.209 -6.201,18.994 0.194,7.076 1.841,13.666 6.201,18.997 4.748,5.717 12.018,8.624 19.675,8.624 7.657,0 14.828,-2.81 19.578,-8.624 4.359,-5.331 6.201,-12.115 6.201,-18.997 0,-0.968 -0.096,-2.035 -0.193,-3.004 H -3.199 C -2.813,5.913 -1.939,2.521 0,0 m 0,24.618 c -1.454,-1.84 -2.326,-4.167 -2.813,-6.59 h 27.429 c -0.484,2.423 -1.357,4.75 -2.81,6.59 -2.521,3.391 -6.494,5.137 -10.855,5.041 C 6.591,29.755 2.519,28.009 0,24.618"
               style="fill:#000000;fill-opacity:1;fill-rule:nonzero;stroke:none"
               id="path5768" />
          </g>
          <g
             id="g5770"
             transform="translate(452.0424,80.3798)"
             style="fill:#000000">
            <path
               d="M 0,0 V -25.973 H -11.05 V 0 c 0,5.913 -0.774,11.145 -4.458,14.344 -2.133,1.94 -5.233,2.907 -8.915,2.811 -2.809,-0.097 -5.235,-0.97 -7.269,-2.52 -2.131,-1.744 -3.587,-4.458 -4.167,-7.56 -0.581,-2.714 -0.68,-6.492 -0.68,-10.176 V -25.973 H -47.49 v 52.335 h 9.691 v -4.459 l 0.29,0.292 c 4.072,3.586 9.5,5.33 14.444,5.524 5.424,0.29 11.337,-1.647 15.504,-5.137 C -0.97,16.864 0.097,9.304 0,0"
               style="fill:#000000;fill-opacity:1;fill-rule:nonzero;stroke:none"
               id="path5772" />
          </g>
          <g
             id="g5774"
             transform="translate(508.0326,80.3798)"
             style="fill:#000000">
            <path
               d="M 0,0 V -25.973 H -11.05 V 0 c 0,5.913 -0.774,11.145 -4.458,14.344 -2.131,1.94 -5.231,2.907 -8.915,2.811 -2.81,-0.097 -5.235,-0.97 -7.269,-2.52 -2.131,-1.744 -3.585,-4.458 -4.167,-7.56 -0.581,-2.714 -0.678,-6.492 -0.678,-10.176 v -22.872 h -10.951 v 52.335 h 9.689 v -4.459 l 0.292,0.292 c 4.07,3.586 9.497,5.33 14.441,5.524 5.427,0.29 11.338,-1.647 15.505,-5.137 C -0.97,16.864 0.099,9.304 0,0"
               style="fill:#000000;fill-opacity:1;fill-rule:nonzero;stroke:none"
               id="path5776" />
          </g>
          <g
             id="g5778"
             transform="translate(530.1976,68.2646)"
             style="fill:#000000">
            <path
               d="m 0,0 c 2.519,-3.294 6.591,-5.038 10.951,-5.038 4.363,0 8.335,1.744 10.855,5.038 0.581,0.776 0.873,1.454 1.26,2.134 L 33.921,-2.518 C 33.05,-4.07 32.08,-5.523 30.917,-6.881 c -4.943,-5.717 -12.405,-8.723 -19.966,-8.431 -7.656,0.291 -14.925,2.908 -19.674,8.627 -4.458,5.522 -6.298,12.209 -6.202,18.994 0.195,7.076 1.841,13.666 6.202,18.997 4.749,5.717 12.018,8.624 19.674,8.624 7.657,0 14.828,-2.81 19.578,-8.624 4.362,-5.331 6.202,-12.115 6.202,-18.997 0,-0.968 -0.097,-2.035 -0.194,-3.004 H -3.199 C -2.81,5.913 -1.939,2.521 0,0 m 0,24.618 c -1.455,-1.84 -2.326,-4.167 -2.81,-6.59 h 27.426 c -0.483,2.423 -1.356,4.75 -2.81,6.59 -2.52,3.391 -6.492,5.137 -10.855,5.041 C 6.591,29.755 2.519,28.009 0,24.618"
               style="fill:#000000;fill-opacity:1;fill-rule:nonzero;stroke:none"
               id="path5780" />
          </g>
          <path
             d="m 325.856,114.786 h 10.048 v 10.274 h -10.048 z"
             style="fill:#000000;fill-opacity:1;fill-rule:nonzero;stroke:none"
             id="path5782" />
          <g
             id="g5784"
             transform="translate(301.8588,126.4604)"
             style="fill:#000000">
            <path
               d="m 0,0 -10.854,-5.181 v -12.97 h -24.825 c -6.057,0.867 -14.058,3.638 -14.058,12.219 0,9.075 10.236,12.456 16.688,12.456 5.822,0 11.293,-1.721 13.542,-2.529 v 10.108 c -3.507,1.017 -8.331,2.049 -13.542,2.049 -12.758,0 -26.316,-7.74 -26.316,-22.084 0,-4.714 1.396,-8.839 3.958,-12.219 h -29.508 v -10.3 h 30.408 c -4.481,-5.401 -6.608,-12.104 -6.608,-17.694 0,-10.649 4.993,-17.204 9.179,-20.826 5.087,-4.403 11.894,-6.929 18.676,-6.929 4.982,0 10.565,1.032 13.753,1.724 v 9.884 c -1.113,-0.281 -8.115,-1.979 -13.753,-1.979 -7.046,0 -18.226,4.921 -18.226,18.126 0,4.279 2.988,15.81 15.541,17.694 h 25.091 v -22.573 c 0,-5.427 0.194,-10.078 2.23,-14.052 2.034,-3.877 5.62,-6.106 10.368,-7.366 3.684,-0.871 9.887,-0.678 13.764,0.389 v 9.498 c -2.811,-0.487 -6.01,-0.583 -8.625,-0.291 -2.23,0.191 -4.459,1.452 -5.622,3.488 C 0,-57.418 0,-54.511 0,-50.344 v 22.001 h 23.996 v -43.71 h 10.048 v 43.71 8.625 1.444 H 0 Z"
               style="fill:#000000;fill-opacity:1;fill-rule:nonzero;stroke:none"
               id="path5786" />
          </g>
          <g
             id="g5788"
             transform="translate(273.0932,163.9125)"
             style="fill:#000000">
            <path
               d="m 0,0 -16.969,-7.429 0.188,-0.057 h -0.188 V -17.712 L 0,-10.283 H -0.173 L 0,-10.226 Z"
               style="fill:#000000;fill-opacity:1;fill-rule:nonzero;stroke:none"
               id="path5790" />
          </g>
        </g>
      </g>
    </g>
  </g>
</svg>
