<?xml version="1.0" encoding="UTF-8" standalone="no"?>
<svg
   xmlns:dc="http://purl.org/dc/elements/1.1/"
   xmlns:cc="http://creativecommons.org/ns#"
   xmlns:rdf="http://www.w3.org/1999/02/22-rdf-syntax-ns#"
   xmlns:svg="http://www.w3.org/2000/svg"
   xmlns="http://www.w3.org/2000/svg"
   xmlns:sodipodi="http://sodipodi.sourceforge.net/DTD/sodipodi-0.dtd"
   xmlns:inkscape="http://www.inkscape.org/namespaces/inkscape"
   width="210mm"
   height="297mm"
   viewBox="0 0 210 297"
   version="1.1"
   id="svg1709"
   inkscape:version="1.0.2 (e86c870879, 2021-01-15)"
   sodipodi:docname="sem.svg">
  <defs
     id="defs1703" />
  <sodipodi:namedview
     id="base"
     pagecolor="#ffffff"
     bordercolor="#666666"
     borderopacity="1.0"
     inkscape:pageopacity="0.0"
     inkscape:pageshadow="2"
     inkscape:zoom="0.33521689"
     inkscape:cx="400"
     inkscape:cy="560"
     inkscape:document-units="mm"
     inkscape:current-layer="layer1"
     inkscape:document-rotation="0"
     showgrid="false"
     inkscape:window-width="1920"
     inkscape:window-height="1016"
     inkscape:window-x="1920"
     inkscape:window-y="27"
     inkscape:window-maximized="1" />
  <metadata
     id="metadata1706">
    <rdf:RDF>
      <cc:Work
         rdf:about="">
        <dc:format>image/svg+xml</dc:format>
        <dc:type
           rdf:resource="http://purl.org/dc/dcmitype/StillImage" />
        <dc:title></dc:title>
      </cc:Work>
    </rdf:RDF>
  </metadata>
  <g
     inkscape:label="Calque 1"
     inkscape:groupmode="layer"
     id="layer1">
    <g
       id="g6545"
       transform="matrix(5.7406205,0,0,5.7406205,-366.55453,-4417.1211)">
      <g
         id="g688"
         transform="matrix(0.04161406,0,0,-0.04161406,74.154183,783.90828)"
         style="font-size:19.7556px;line-height:23.0524px;font-family:'Atlas Grotesk';-inkscape-font-specification:'Atlas Grotesk';letter-spacing:0px;word-spacing:0;fill:#000000;stroke-width:0">
        <path
           d="M 0,0 C 1.121,0 2.329,0.281 3.445,0.654 V -5.4 c -1.771,-0.655 -3.721,-1.024 -5.585,-1.024 -3.629,0 -6.889,1.489 -8.194,5.4 -4.468,-3.726 -10.145,-5.958 -17.408,-5.958 -7.918,0 -15.734,4.192 -15.734,13.594 0,11.547 10.611,15.079 20.203,15.079 3.91,0 8.66,-0.553 12.381,-1.392 v 1.582 c 0,6.704 -4.561,11.173 -12.755,11.173 -6.889,0 -12.381,-1.674 -16.296,-3.353 v 7.259 c 3.541,1.217 9.688,2.983 17.039,2.983 11.92,0 19.46,-6.515 19.46,-18.994 V 3.444 C -3.444,0.742 -1.955,0 0,0 m -26.16,-0.559 c 5.681,0 11.358,2.33 15.268,6.516 v 8.194 c -3.168,0.651 -7.729,1.306 -11.358,1.306 -6.52,0 -13.594,-1.955 -13.594,-8.472 0,-5.214 4.745,-7.544 9.684,-7.544"
           style="fill:#000000;fill-opacity:1;fill-rule:nonzero;stroke:none"
           id="path690" />
      </g>
      <g
         id="g692"
         transform="matrix(0.04161406,0,0,-0.04161406,75.665231,784.15236)"
         style="font-size:19.7556px;line-height:23.0524px;font-family:'Atlas Grotesk';-inkscape-font-specification:'Atlas Grotesk';letter-spacing:0px;word-spacing:0;fill:#000000;stroke-width:0">
        <path
           d="M 0,0 V 44.688 H 6.705 V 38.73 c 2.417,2.611 7.724,7.075 15.268,7.075 6.701,0 11.639,-2.882 14.337,-7.54 4.003,4.095 9.495,7.54 16.292,7.54 11.081,0 17.039,-7.817 17.039,-18.247 V 0 h -7.448 v 27.747 c 0,6.797 -3.91,11.173 -10.426,11.173 -6.055,0 -10.523,-4.191 -13.036,-7.356 0.185,-1.304 0.277,-2.609 0.277,-4.006 V 0 h -7.443 v 27.747 c 0,6.797 -3.911,11.173 -10.431,11.173 -6.608,0 -11.265,-4.939 -13.686,-8.103 L 7.448,0 Z"
           style="fill:#000000;fill-opacity:1;fill-rule:nonzero;stroke:none"
           id="path694" />
      </g>
      <g
         id="g696"
         transform="matrix(0.04161406,0,0,-0.04161406,80.0165,782.24616)"
         style="font-size:19.7556px;line-height:23.0524px;font-family:'Atlas Grotesk';-inkscape-font-specification:'Atlas Grotesk';letter-spacing:0px;word-spacing:0;fill:#000000;stroke-width:0">
        <path
           d="m 0,0 c 17.224,0 23.555,-14.061 20.76,-26.719 h -35.562 c 0.927,-9.406 9.398,-13.317 18.431,-13.317 5.493,0 10.897,1.489 14.715,3.634 v -7.263 c -4.099,-2.14 -9.965,-3.256 -15.831,-3.256 -13.221,0 -24.767,7.54 -24.767,23.458 C -22.254,-7.821 -10.615,0 0,0 m 0.466,-6.885 c -7.636,0 -14.71,-4.565 -15.268,-13.317 h 28.95 c 0.655,4.749 -2.324,13.317 -13.682,13.317 M -6.055,5.404 2.421,19.091 h 9.31 L 2.047,5.404 Z"
           style="fill:#000000;fill-opacity:1;fill-rule:nonzero;stroke:none"
           id="path698" />
      </g>
      <g
         id="g700"
         transform="matrix(0.04161406,0,0,-0.04161406,81.857174,781.63784)"
         style="font-size:19.7556px;line-height:23.0524px;font-family:'Atlas Grotesk';-inkscape-font-specification:'Atlas Grotesk';letter-spacing:0px;word-spacing:0;fill:#000000;stroke-width:0">
        <path
           d="m 0,0 v -15.733 h 17.878 v -6.89 H 0 v -23.094 c 0,-6.797 3.071,-8.845 9.587,-8.845 3.541,0 6.889,0.84 9.872,2.048 v -6.884 c -3.352,-1.213 -7.728,-2.053 -12.012,-2.053 -8.66,0 -14.802,4.658 -14.802,14.433 v 24.395 h -8.384 v 6.89 h 8.384 v 13.87 z"
           style="fill:#000000;fill-opacity:1;fill-rule:nonzero;stroke:none"
           id="path702" />
      </g>
      <g
         id="g704"
         transform="matrix(0.04161406,0,0,-0.04161406,84.201277,782.25384)"
         style="font-size:19.7556px;line-height:23.0524px;font-family:'Atlas Grotesk';-inkscape-font-specification:'Atlas Grotesk';letter-spacing:0px;word-spacing:0;fill:#000000;stroke-width:0">
        <path
           d="m 0,0 v -7.452 c -8.753,1.028 -15.826,-3.163 -18.528,-10.329 V -45.62 h -7.448 v 44.688 h 6.701 V -8.845 C -15.734,-2.979 -7.821,0.65 0,0"
           style="fill:#000000;fill-opacity:1;fill-rule:nonzero;stroke:none"
           id="path706" />
      </g>
      <g
         id="g708"
         transform="matrix(0.04161406,0,0,-0.04161406,85.437343,782.24616)"
         style="font-size:19.7556px;line-height:23.0524px;font-family:'Atlas Grotesk';-inkscape-font-specification:'Atlas Grotesk';letter-spacing:0px;word-spacing:0;fill:#000000;stroke-width:0">
        <path
           d="m 0,0 c 12.196,0 23.836,-8.189 23.836,-23.463 0,-15.267 -11.64,-23.458 -23.836,-23.458 -12.105,0 -23.836,8.191 -23.836,23.458 C -23.836,-8.189 -12.105,0 0,0 m 0,-7.074 c -9.126,0 -16.385,-6.055 -16.385,-16.389 0,-10.334 7.259,-16.384 16.385,-16.384 9.126,0 16.389,6.05 16.389,16.384 0,10.334 -7.263,16.389 -16.389,16.389"
           style="fill:#000000;fill-opacity:1;fill-rule:nonzero;stroke:none"
           id="path710" />
      </g>
      <g
         id="g712"
         transform="matrix(0.04161406,0,0,-0.04161406,88.010178,782.24616)"
         style="font-size:19.7556px;line-height:23.0524px;font-family:'Atlas Grotesk';-inkscape-font-specification:'Atlas Grotesk';letter-spacing:0px;word-spacing:0;fill:#000000;stroke-width:0">
        <path
           d="m 0,0 c 12.755,0 22.342,-10.053 22.342,-23.463 0,-13.405 -9.587,-23.458 -22.342,-23.458 -8.568,0 -14.061,3.998 -17.32,7.817 v -27.184 h -7.448 v 65.172 h 6.706 V -8.563 C -14.061,-4.003 -8.568,0 0,0 m -0.84,-6.885 c -8.01,0 -13.968,-5.216 -16.48,-10.993 v -11.169 c 2.512,-5.773 8.47,-10.989 16.48,-10.989 8.66,0 15.735,6.336 15.735,16.573 0,10.242 -7.075,16.578 -15.735,16.578"
           style="fill:#000000;fill-opacity:1;fill-rule:nonzero;stroke:none"
           id="path714" />
      </g>
      <g
         id="g716"
         transform="matrix(0.04161406,0,0,-0.04161406,90.354265,782.24616)"
         style="font-size:19.7556px;line-height:23.0524px;font-family:'Atlas Grotesk';-inkscape-font-specification:'Atlas Grotesk';letter-spacing:0px;word-spacing:0;fill:#000000;stroke-width:0">
        <path
           d="M 0,0 C 12.197,0 23.836,-8.189 23.836,-23.463 23.836,-38.73 12.197,-46.921 0,-46.921 c -12.104,0 -23.836,8.191 -23.836,23.458 C -23.836,-8.189 -12.104,0 0,0 m 0,-7.074 c -9.126,0 -16.384,-6.055 -16.384,-16.389 0,-10.334 7.258,-16.384 16.384,-16.384 9.126,0 16.389,6.05 16.389,16.384 0,10.334 -7.263,16.389 -16.389,16.389"
           style="fill:#000000;fill-opacity:1;fill-rule:nonzero;stroke:none"
           id="path718" />
      </g>
      <path
         d="m 92.21423,784.15237 h -0.310108 v -2.68464 h 0.310108 z"
         style="font-size:19.7556px;line-height:23.0524px;font-family:'Atlas Grotesk';-inkscape-font-specification:'Atlas Grotesk';letter-spacing:0px;word-spacing:0;fill:#000000;fill-opacity:1;fill-rule:nonzero;stroke:none;stroke-width:0"
         id="path720" />
      <path
         d="m 71.727952,784.17756 h -0.310108 v -2.68465 h 0.310108 z"
         style="font-size:19.7556px;line-height:23.0524px;font-family:'Atlas Grotesk';-inkscape-font-specification:'Atlas Grotesk';letter-spacing:0px;word-spacing:0;fill:#000000;fill-opacity:1;fill-rule:nonzero;stroke:none;stroke-width:0"
         id="path720-3" />
      <g
         id="g722"
         transform="matrix(0.04161406,0,0,-0.04161406,93.698338,782.24616)"
         style="font-size:19.7556px;line-height:23.0524px;font-family:'Atlas Grotesk';-inkscape-font-specification:'Atlas Grotesk';letter-spacing:0px;word-spacing:0;fill:#000000;stroke-width:0">
        <path
           d="m 0,0 c 17.224,0 23.555,-14.061 20.761,-26.719 h -35.564 c 0.927,-9.406 9.399,-13.317 18.432,-13.317 5.492,0 10.896,1.489 14.715,3.634 v -7.263 c -4.1,-2.14 -9.965,-3.256 -15.83,-3.256 -13.222,0 -24.768,7.54 -24.768,23.458 C -22.254,-7.821 -10.615,0 0,0 m 0.466,-6.885 c -7.637,0 -14.71,-4.565 -15.269,-13.317 h 28.95 c 0.656,4.749 -2.324,13.317 -13.681,13.317"
           style="fill:#000000;fill-opacity:1;fill-rule:nonzero;stroke:none"
           id="path724" />
      </g>
      <g
         id="g726"
         transform="matrix(0.04161406,0,0,-0.04161406,67.360159,778.10832)"
         style="font-size:19.7556px;line-height:23.0524px;font-family:'Atlas Grotesk';-inkscape-font-specification:'Atlas Grotesk';letter-spacing:0px;word-spacing:0;fill:#000000;stroke-width:0">
        <path
           d="m 0,0 c 7.419,0 14.931,-1.794 20.299,-4.833 v -12.515 c -5.276,3.754 -12.34,5.631 -19.317,5.543 -6.797,-0.088 -10.191,-1.969 -10.191,-5.81 0,-10.823 34.249,-6.797 34.249,-29.066 0,-14.042 -11.266,-18.418 -24.413,-18.418 -8.679,0 -16.726,2.057 -23.163,5.631 v 12.787 c 7.157,-4.74 15.024,-6.617 22.176,-6.617 7.245,0 11.717,1.522 11.717,5.994 0,11.713 -34.248,7.328 -34.248,29.504 C -22.891,-5.723 -12.34,0 0,0"
           style="fill:#000000;fill-opacity:1;fill-rule:nonzero;stroke:none"
           id="path728" />
      </g>
      <g
         id="g730"
         transform="matrix(0.04161406,0,0,-0.04161406,68.443281,780.76536)"
         style="font-size:19.7556px;line-height:23.0524px;font-family:'Atlas Grotesk';-inkscape-font-specification:'Atlas Grotesk';letter-spacing:0px;word-spacing:0;fill:#000000;stroke-width:0">
        <path
           d="M 0,0 25.574,62.595 H 40.059 L 65.545,0 H 51.688 l -4.56,11.713 H 18.514 L 13.861,0 Z m 22.715,22.804 h 20.207 l -8.761,22.448 c -0.448,1.249 -0.895,2.499 -1.342,4.915 -0.447,-2.416 -0.895,-3.666 -1.43,-4.915 z"
           style="fill:#000000;fill-opacity:1;fill-rule:nonzero;stroke:none"
           id="path732" />
      </g>
      <path
         d="m 72.019718,780.76536 h -0.558252 v -2.60479 h 0.558252 z"
         style="font-size:19.7556px;line-height:23.0524px;font-family:'Atlas Grotesk';-inkscape-font-specification:'Atlas Grotesk';letter-spacing:0px;word-spacing:0;fill:#000000;fill-opacity:1;fill-rule:nonzero;stroke:none;stroke-width:0"
         id="path734" />
      <g
         id="g736"
         transform="matrix(0.04161406,0,0,-0.04161406,72.577929,780.76536)"
         style="font-size:19.7556px;line-height:23.0524px;font-family:'Atlas Grotesk';-inkscape-font-specification:'Atlas Grotesk';letter-spacing:0px;word-spacing:0;fill:#000000;stroke-width:0">
        <path
           d="M 0,0 V 62.595 H 12.607 L 41.765,21.729 c -0.184,2.596 -0.272,5.723 -0.272,8.586 v 32.28 H 54.907 V 0 H 42.295 L 13.147,40.866 c 0.18,-2.592 0.268,-5.722 0.268,-8.582 L 13.415,0 Z"
           style="fill:#000000;fill-opacity:1;fill-rule:nonzero;stroke:none"
           id="path738" />
      </g>
      <g
         id="g740"
         transform="matrix(0.04161406,0,0,-0.04161406,77.345136,778.16049)"
         style="font-size:19.7556px;line-height:23.0524px;font-family:'Atlas Grotesk';-inkscape-font-specification:'Atlas Grotesk';letter-spacing:0px;word-spacing:0;fill:#000000;stroke-width:0">
        <path
           d="m 0,0 v -12.073 h -19.225 v -50.521 h -13.327 v 50.521 H -51.776 V 0 Z"
           style="fill:#000000;fill-opacity:1;fill-rule:nonzero;stroke:none"
           id="path742" />
      </g>
      <path
         d="m 78.541931,779.68252 h -1.065985 v -0.43927 h 1.065985 z"
         style="font-size:19.7556px;line-height:23.0524px;font-family:'Atlas Grotesk';-inkscape-font-specification:'Atlas Grotesk';letter-spacing:0px;word-spacing:0;fill:#000000;fill-opacity:1;fill-rule:nonzero;stroke:none;stroke-width:0"
         id="path744" />
      <g
         id="g746"
         transform="matrix(0.04161406,0,0,-0.04161406,80.91171,778.16049)"
         style="font-size:19.7556px;line-height:23.0524px;font-family:'Atlas Grotesk';-inkscape-font-specification:'Atlas Grotesk';letter-spacing:0px;word-spacing:0;fill:#000000;stroke-width:0">
        <path
           d="M 0,0 V -11.805 H -30.67 V -25.127 H -2.679 V -36.84 H -30.67 V -50.794 H 0.535 v -11.8 H -44.084 V 0 Z m -29.061,5.723 8.047,13.234 H -7.42 L -17.081,5.723 Z"
           style="fill:#000000;fill-opacity:1;fill-rule:nonzero;stroke:none"
           id="path748" />
      </g>
      <g
         id="g750"
         transform="matrix(0.04161406,0,0,-0.04161406,83.300965,778.16049)"
         style="font-size:19.7556px;line-height:23.0524px;font-family:'Atlas Grotesk';-inkscape-font-specification:'Atlas Grotesk';letter-spacing:0px;word-spacing:0;fill:#000000;stroke-width:0">
        <path
           d="m 0,0 v -12.073 h -19.225 v -50.521 h -13.327 v 50.521 H -51.776 V 0 Z"
           style="fill:#000000;fill-opacity:1;fill-rule:nonzero;stroke:none"
           id="path752" />
      </g>
      <path
         d="m 84.186961,780.76536 h -0.55821 v -2.60479 h 0.55821 z"
         style="font-size:19.7556px;line-height:23.0524px;font-family:'Atlas Grotesk';-inkscape-font-specification:'Atlas Grotesk';letter-spacing:0px;word-spacing:0;fill:#000000;fill-opacity:1;fill-rule:nonzero;stroke:none;stroke-width:0"
         id="path754" />
      <g
         id="g756"
         transform="matrix(0.04161406,0,0,-0.04161406,86.551048,778.16049)"
         style="font-size:19.7556px;line-height:23.0524px;font-family:'Atlas Grotesk';-inkscape-font-specification:'Atlas Grotesk';letter-spacing:0px;word-spacing:0;fill:#000000;stroke-width:0">
        <path
           d="M 0,0 V -11.805 H -30.67 V -25.127 H -2.684 V -36.84 H -30.67 V -50.794 H 0.539 v -11.8 H -44.085 V 0 Z"
           style="fill:#000000;fill-opacity:1;fill-rule:nonzero;stroke:none"
           id="path758" />
      </g>
      <g
         id="g760"
         transform="matrix(0.04161406,0,0,-0.04161406,87.102921,780.76536)"
         style="font-size:19.7556px;line-height:23.0524px;font-family:'Atlas Grotesk';-inkscape-font-specification:'Atlas Grotesk';letter-spacing:0px;word-spacing:0;fill:#000000;stroke-width:0">
        <path
           d="M 0,0 V 62.595 H 12.607 L 41.761,21.729 c -0.18,2.596 -0.268,5.723 -0.268,8.586 v 32.28 H 54.908 V 0 H 42.296 L 13.147,40.866 c 0.18,-2.592 0.268,-5.722 0.268,-8.582 L 13.415,0 Z"
           style="fill:#000000;fill-opacity:1;fill-rule:nonzero;stroke:none"
           id="path762" />
      </g>
      <g
         id="g764"
         transform="matrix(0.04161406,0,0,-0.04161406,89.917354,780.76536)"
         style="font-size:19.7556px;line-height:23.0524px;font-family:'Atlas Grotesk';-inkscape-font-specification:'Atlas Grotesk';letter-spacing:0px;word-spacing:0;fill:#000000;stroke-width:0">
        <path
           d="M 0,0 V 62.595 H 12.607 L 41.76,21.729 c -0.18,2.596 -0.268,5.723 -0.268,8.586 v 32.28 H 54.907 V 0 H 42.295 L 13.142,40.866 c 0.184,-2.592 0.272,-5.722 0.272,-8.582 V 0 Z"
           style="fill:#000000;fill-opacity:1;fill-rule:nonzero;stroke:none"
           id="path766" />
      </g>
      <g
         id="g768"
         transform="matrix(0.04161406,0,0,-0.04161406,98.029208,772.40643)"
         style="font-size:19.7556px;line-height:23.0524px;font-family:'Atlas Grotesk';-inkscape-font-specification:'Atlas Grotesk';letter-spacing:0px;word-spacing:0;fill:#000000;stroke-width:0">
        <path
           d="m 0,0 h -159.732 c -8.398,0 -15.434,-7.037 -15.434,-15.435 v -76.147 c 0,-8.411 7.036,-15.434 15.434,-15.434 h 78.531 v -27.811 l 28.964,45.634 c 0.885,1.36 2.707,1.729 4.053,0.844 1.356,-0.89 1.73,-2.707 0.844,-4.053 l -9.306,-14.614 H 0 c 8.411,0 15.435,7.023 15.435,15.434 v 76.147 C 15.435,-7.037 8.411,0 0,0"
           style="fill:#000000;fill-opacity:1;fill-rule:nonzero;stroke:none"
           id="path770" />
      </g>
      <g
         id="g772"
         transform="matrix(0.04161406,0,0,-0.04161406,94.293338,773.19752)"
         style="font-size:19.7556px;line-height:23.0524px;font-family:'Atlas Grotesk';-inkscape-font-specification:'Atlas Grotesk';letter-spacing:0px;word-spacing:0;fill:#ffffff;stroke-width:0">
        <path
           d="m 0,0 c 0,0.724 0.4,1.531 0.807,2.172 l 2.91,5.345 c 1.051,1.688 2.582,2.739 4.593,2.739 2.983,0 6.847,-1.854 6.847,-3.708 0,-1.125 -0.645,-2.015 -1.609,-2.9 L 10.057,0.263 C 7.719,-1.909 5.796,-2.093 3.062,-2.093 1.291,-2.093 0,-1.291 0,0"
           style="fill:#ffffff;fill-opacity:1;fill-rule:nonzero;stroke:none"
           id="path774" />
      </g>
      <g
         id="g776"
         transform="matrix(0.04161406,0,0,-0.04161406,91.517423,775.55503)"
         style="font-size:19.7556px;line-height:23.0524px;font-family:'Atlas Grotesk';-inkscape-font-specification:'Atlas Grotesk';letter-spacing:0px;word-spacing:0;fill:#ffffff;stroke-width:0">
        <path
           d="m 0,0 c -1.374,0.968 -2.338,2.739 -2.338,4.676 0,3.219 2.577,5.718 5.801,5.718 1.609,0 2.739,-0.563 3.541,-1.13 4.275,-3.14 8.941,-5.077 14.425,-5.077 5.072,0 8.13,2.02 8.13,5.321 V 9.67 c 0,3.14 -1.933,4.749 -11.354,7.166 -11.362,2.9 -18.689,6.04 -18.689,17.242 v 0.161 c 0,10.228 8.217,16.997 19.731,16.997 6.849,0 12.811,-1.775 17.888,-4.998 1.37,-0.802 2.734,-2.495 2.734,-4.911 0,-3.223 -2.573,-5.718 -5.796,-5.718 -1.208,0 -2.172,0.318 -3.14,0.88 -4.109,2.421 -7.978,3.791 -11.842,3.791 -4.755,0 -7.249,-2.176 -7.249,-4.916 v -0.161 c 0,-3.708 2.411,-4.911 12.16,-7.411 C 35.442,24.809 41.89,20.705 41.89,10.874 V 10.712 C 41.89,-0.48 33.349,-6.765 21.185,-6.765 13.773,-6.765 6.28,-4.51 0,0"
           style="fill:#ffffff;fill-opacity:1;fill-rule:nonzero;stroke:none"
           id="path778" />
      </g>
      <g
         id="g780"
         transform="matrix(0.04161406,0,0,-0.04161406,93.542328,775.54502)"
         style="font-size:19.7556px;line-height:23.0524px;font-family:'Atlas Grotesk';-inkscape-font-specification:'Atlas Grotesk';letter-spacing:0px;word-spacing:0;fill:#ffffff;stroke-width:0">
        <path
           d="m 0,0 v 43.987 c 0,3.464 2.739,6.198 6.207,6.198 h 31.256 c 3.062,0 5.557,-2.495 5.557,-5.557 0,-3.062 -2.495,-5.473 -5.557,-5.473 H 12.326 V 27.714 h 21.513 c 3.057,0 5.557,-2.495 5.557,-5.557 0,-3.066 -2.5,-5.478 -5.557,-5.478 H 12.326 V 4.837 h 25.538 c 3.062,0 5.557,-2.499 5.557,-5.561 0,-3.058 -2.495,-5.479 -5.557,-5.479 H 6.207 C 2.739,-6.203 0,-3.463 0,0"
           style="fill:#ffffff;fill-opacity:1;fill-rule:nonzero;stroke:none"
           id="path782" />
      </g>
      <g
         id="g784"
         transform="matrix(0.04161406,0,0,-0.04161406,95.621118,773.70114)"
         style="font-size:19.7556px;line-height:23.0524px;font-family:'Atlas Grotesk';-inkscape-font-specification:'Atlas Grotesk';letter-spacing:0px;word-spacing:0;fill:#ffffff;stroke-width:0">
        <path
           d="m 0,0 c 0,3.463 2.739,6.202 6.207,6.202 h 1.364 c 2.661,0 4.515,-1.369 5.645,-3.223 L 28.193,-21.429 43.259,3.062 c 1.291,2.093 3.061,3.14 5.556,3.14 h 1.37 c 3.463,0 6.207,-2.739 6.207,-6.202 v -44.79 c 0,-3.463 -2.744,-6.207 -6.207,-6.207 -3.38,0 -6.12,2.822 -6.12,6.207 v 28.11 L 33.188,-33.433 c -1.287,-1.936 -2.896,-3.14 -5.156,-3.14 -2.255,0 -3.864,1.204 -5.155,3.14 l -10.713,16.514 v -28.033 c 0,-3.384 -2.739,-6.045 -6.123,-6.045 -3.381,0 -6.041,2.661 -6.041,6.045 z"
           style="fill:#ffffff;fill-opacity:1;fill-rule:nonzero;stroke:none"
           id="path786" />
      </g>
      <g
         id="g788"
         transform="matrix(0.04161406,0,0,-0.04161406,94.560858,778.16049)"
         style="font-size:19.7556px;line-height:23.0524px;font-family:'Atlas Grotesk';-inkscape-font-specification:'Atlas Grotesk';letter-spacing:0px;word-spacing:0;fill:#000000;stroke-width:0">
        <path
           d="M 0,0 V -11.805 H -30.67 V -25.127 H -2.684 V -36.84 H -30.67 V -50.794 H 0.539 v -11.8 H -44.085 V 0 Z"
           style="fill:#000000;fill-opacity:1;fill-rule:nonzero;stroke:none"
           id="path790" />
      </g>
    </g>
  </g>
</svg>
